/* XPM */
static char *result[] = {
/* columns rows colors chars-per-pixel */
"32 32 4 1 ",
"  c #FFA300",
". c #FFEC27",
"X c white",
"o c None",
/* pixels */
"oooooooooooooooooooooooooooooooo",
"oooooooooooooooooooooooooooooooo",
"oooooooooooooooooooooooooooooooo",
"oooooooooooooooooooooooooooooooo",
"oooooooooooooooooooooooooooooooo",
"ooooooooooooXXXXXXXXoooooooooooo",
"ooooooooooXXX      XXXoooooooooo",
"oooooooooXX          XXooooooooo",
"ooooooooXX    ....    XXoooooooo",
"oooooooXX   ........   XXooooooo",
"ooooooXX   ..........   XXoooooo",
"ooooooX   ....    ....   Xoooooo",
"oooooXX  ....      ....  XXooooo",
"oooooX   ...        ...   Xooooo",
"oooooX  ...          ..X  Xooooo",
"oooooX  ...          .XX  Xooooo",
"oooooX  ...          XXX  Xooooo",
"oooooX  ...         .XX.  Xooooo",
"oooooX   ...       .XX.   Xooooo",
"oooooXX  ....     .XXX.  XXooooo",
"ooooooX   ....   .XXX.   Xoooooo",
"ooooooXX   .....XXXX.   XXoooooo",
"oooooooXX   ...XXX..   XXooooooo",
"ooooooooXX    XXX.    XXoooooooo",
"oooooooooXX          XXooooooooo",
"ooooooooooXXX      XXXoooooooooo",
"ooooooooooooXXXXXXXXoooooooooooo",
"oooooooooooooooooooooooooooooooo",
"oooooooooooooooooooooooooooooooo",
"oooooooooooooooooooooooooooooooo",
"oooooooooooooooooooooooooooooooo",
"oooooooooooooooooooooooooooooooo"
};
