/* XPM */
static char *result[] = {
/* columns rows colors chars-per-pixel */
"32 32 4 1 ",
"  c #FFA300",
". c #FFEC27",
"X c white",
"o c None",
/* pixels */
"oooooooooooooooooooooooooooooooo",
"oooooooooooooooooooooooooooooooo",
"oooooooooooooooooooooooooooooooo",
"oooooooooooooooooooooooooooooooo",
"oooooooooooooooooooooooooooooooo",
"ooooooooooooXXXXXXXXoooooooooooo",
"oooooooooooXX      XXooooooooooo",
"ooooooooooXX        XXoooooooooo",
"oooooooooXX   ....   XXooooooooo",
"ooooooooXX   ......   XXoooooooo",
"oooooooXX   ........   XXooooooo",
"oooooooX     ..   .XX   Xooooooo",
"oooooooX  ....   ..XXX  Xooooooo",
"oooooooX  ...   ...XXX  Xooooooo",
"oooooooX    .  ....XXX  Xooooooo",
"oooooooX  ... ....XXX.  Xooooooo",
"oooooooX  ... ....XX .  Xooooooo",
"oooooooX    .....XX  .  Xooooooo",
"oooooooX  .....XXX  ..  Xooooooo",
"oooooooX  ...XXXX  ...  Xooooooo",
"oooooooX   .XXXX  ...   Xooooooo",
"oooooooXX   .XX.....   XXooooooo",
"ooooooooXX   ......   XXoooooooo",
"oooooooooXX    ...   XXooooooooo",
"ooooooooooXX        XXoooooooooo",
"oooooooooooXX      XXooooooooooo",
"ooooooooooooXXXXXXXXoooooooooooo",
"oooooooooooooooooooooooooooooooo",
"oooooooooooooooooooooooooooooooo",
"oooooooooooooooooooooooooooooooo",
"oooooooooooooooooooooooooooooooo",
"oooooooooooooooooooooooooooooooo"
};
