/* XPM */
static char *result[] = {
/* columns rows colors chars-per-pixel */
"32 32 4 1 ",
"  c #FFA300",
". c #FFEC27",
"X c white",
"o c None",
/* pixels */
"oooooooooooooooooooooooooooooooo",
"oooooooooooooooooooooooooooooooo",
"oooooooooooooooooooooooooooooooo",
"oooooooooooooooooooooooooooooooo",
"oooooooooooooooooooooooooooooooo",
"ooooooooooooXXXXXXXXoooooooooooo",
"oooooooooooXX      XXooooooooooo",
"oooooooooooX        Xooooooooooo",
"oooooooooooX  ....  Xooooooooooo",
"oooooooooooX  .XXX  Xooooooooooo",
"oooooooooooX  XXXX  Xooooooooooo",
"oooooooooooX  X...  Xooooooooooo",
"oooooooooooX  XX..  Xooooooooooo",
"oooooooooooX  X...  Xooooooooooo",
"oooooooooooX  X. .  Xooooooooooo",
"oooooooooooX  ....  Xooooooooooo",
"oooooooooooX  ....  Xooooooooooo",
"oooooooooooX  .  .  Xooooooooooo",
"oooooooooooX  ....  Xooooooooooo",
"oooooooooooX  ....  Xooooooooooo",
"oooooooooooX  .  .  Xooooooooooo",
"oooooooooooX  ....  Xooooooooooo",
"oooooooooooX  ....  Xooooooooooo",
"oooooooooooX  .  .  Xooooooooooo",
"oooooooooooX        Xooooooooooo",
"oooooooooooXX      XXooooooooooo",
"ooooooooooooXXXXXXXXoooooooooooo",
"oooooooooooooooooooooooooooooooo",
"oooooooooooooooooooooooooooooooo",
"oooooooooooooooooooooooooooooooo",
"oooooooooooooooooooooooooooooooo",
"oooooooooooooooooooooooooooooooo"
};
