/* XPM */
static char *result[] = {
/* columns rows colors chars-per-pixel */
"32 32 4 1 ",
"  c #FFA300",
". c #FFEC27",
"X c white",
"o c None",
/* pixels */
"oooooooooooooooooooooooooooooooo",
"oooooooooooooooooooooooooooooooo",
"oooooooooooooooooooooooooooooooo",
"oooooooooooooooooooooooooooooooo",
"oooooooooooooooooooooooooooooooo",
"ooooooooooooXXXXXXXXoooooooooooo",
"oooooooooooXX      XXooooooooooo",
"ooooooooooXXX       XXoooooooooo",
"oooooooooXXXXX....   XXooooooooo",
"ooooooooXX  X......   XXoooooooo",
"oooooooXX   ........   XXooooooo",
"oooooooX   ...   ..     Xooooooo",
"oooooooX  ...     ....  Xooooooo",
"oooooooX  ..       ...  Xooooooo",
"oooooooX  ..       .    Xooooooo",
"oooooooX  ..       ...  Xooooooo",
"oooooooX  ..       ...  Xooooooo",
"oooooooX  ..       .    Xooooooo",
"oooooooX  ..       ...  Xooooooo",
"oooooooX  ...     ....  Xooooooo",
"oooooooX   ...   ..     Xooooooo",
"oooooooXX   ........   XXooooooo",
"ooooooooXX   ......   XXoooooooo",
"oooooooooXX   ...    XXooooooooo",
"ooooooooooXX        XXoooooooooo",
"oooooooooooXX      XXooooooooooo",
"ooooooooooooXXXXXXXXoooooooooooo",
"oooooooooooooooooooooooooooooooo",
"oooooooooooooooooooooooooooooooo",
"oooooooooooooooooooooooooooooooo",
"oooooooooooooooooooooooooooooooo",
"oooooooooooooooooooooooooooooooo"
};
