/* XPM */
static char *result[] = {
/* columns rows colors chars-per-pixel */
"32 32 4 1 ",
"  c #FFA300",
". c #FFEC27",
"X c white",
"o c None",
/* pixels */
"oooooooooooooooooooooooooooooooo",
"oooooooooooooooooooooooooooooooo",
"oooooooooooooooooooooooooooooooo",
"oooooooooooooooooooooooooooooooo",
"oooooooooooooooooooooooooooooooo",
"oooooooooooXXXXXXXXXoooooooooooo",
"ooooooooooXXX      XXXoooooooooo",
"oooooooooXX X        XXooooooooo",
"ooooooooXXXX XX...    XXoooooooo",
"oooooooXX   X.......   XXooooooo",
"ooooooXX   .X........   XXoooooo",
"ooooooX   ....    ....   Xoooooo",
"oooooXX  ....      ....  XXooooo",
"oooooX   ...        ...   Xooooo",
"oooooX  ...          ...  Xooooo",
"oooooX  ...          ...  Xooooo",
"oooooX  ...          ...  Xooooo",
"oooooX  ...          ...  Xooooo",
"oooooX   ...        ...   Xooooo",
"oooooXX  ....      ....  XXooooo",
"ooooooX   ....    ....   Xoooooo",
"ooooooXX   ..........   XXoooooo",
"oooooooXX   ........   XXooooooo",
"ooooooooXX    ....    XXoooooooo",
"oooooooooXX          XXooooooooo",
"ooooooooooXXX      XXXoooooooooo",
"ooooooooooooXXXXXXXXoooooooooooo",
"oooooooooooooooooooooooooooooooo",
"oooooooooooooooooooooooooooooooo",
"oooooooooooooooooooooooooooooooo",
"oooooooooooooooooooooooooooooooo",
"oooooooooooooooooooooooooooooooo"
};
