/* XPM */
static char *result[] = {
/* columns rows colors chars-per-pixel */
"32 32 5 1 ",
"  c black",
". c #38002C",
"X c #222A5C",
"o c #566A89",
"O c #8BABBF",
/* pixels */
"................................",
"XXXXXXX..XXXXXXXXXXXXXX..XXXXXXX",
"XXXXXXX..XXXXXXXXXXXXXX..XXXXXXX",
"XXXXXXX..XXXXXXXXXXXXXX..XXXXXXX",
"XXXXXXX..XXXXXXXXXXXXXX..XXXXXXX",
"XXXXXXX..XXXXXXXXXXXXXX..XXXXXXX",
"XXXXXXX..XXXXXXXXXXXXXX..XXXXXXX",
"XXXXXXX..XXXXXXXXXXXXXX..XXXXXXX",
".........................XXXXXXX",
"XXXXXXXXXXXXXXX..XXXXXXXXXXXXXXX",
"XXXXXXXXXXXXXXX..XXXXXXXXXXXXXXX",
"XXXXXXXXXXXXXXX..XXXXXXXXXXXXXXX",
"XXXXXXXXXXXXXXX..XXXXXXXXXXXXXXX",
"XXXXXXXXXXXXXXX..XXXXXXXXXXXXXXX",
"XXXXXXXXXXXXXXX..XXXXXXXXXXXXXXX",
"XXXXXXXXXXXXXXX..XXXXXXXXXXXXXXX",
"XXXXX...........................",
"XXXXXXX..XXXXXXXXXXXXXX..XXXXXXX",
"XXXXXXX..XXXXXXXXXXXXXX..XXXXXXX",
"XXXXXXX..XXXXXXXXXXXXXX..XXXXXXX",
"XXXXXXX..XXXXXXXXXXXXXX..XXXXXXX",
"XXXXXXX..XXXXXXXXXXXXXX..XXXXXXX",
"XXXXXXX..XXXXXXXXXXXXXX..XXXXXXX",
"XXXXXXX..XXXXXXXXXXXXXX..XXXXXXX",
"................................",
"XoOOOOOOOOOOOOOOOOOOOOOOOOOOOOoX",
"oOOOOOOOOOOOOOOOOOOOOOOOOOOOOOOo",
"oOOOOOOOOOOOOOOOOOOOOOOOOOOOOOOo",
"oOOOOOOOOOOOOOOOOOOOOOOOOOOOOOOo",
"oOOOOOOOOOOOOOOOOOOOOOOOOOOOOOOo",
".oOOOOOOOOOOOOOOOOOOOOOOOOOOOOo.",
"                                "
};
