/* XPM */
static char *result[] = {
/* columns rows colors chars-per-pixel */
"32 32 6 1 ",
"  c #37446E",
". c #566A89",
"X c #38002C",
"o c black",
"O c #8BABBF",
"+ c #222A5C",
/* pixels */
"o    XXXXXXXXXXXXXXXXXXXX+++++++",
"oOOOOO.X+++++++++++++++XX+++++++",
"oOOOOOOX+++++++++++++++XX+++++++",
"oOOOOOOX+++++++++++++++XX+++++++",
"oOOOOOOX+++++++++++++++XX+++++++",
"oOOOOOOX+++++++++++++++XX+++++++",
"oOOOOOOX+++++++++++++++XX+++++++",
"o.OOOOOX+++++++++++++++XX+++++++",
"o    XXXXXXXXXXXXXXXXXXXXXXXXXXX",
"oOO.+......++++XX+++++++++++++++",
"oOOO+......++++XX+++++++++++++++",
"oOOO+......++++XX+++++++++++++++",
"oOOO+......++++XX+++++++++++++++",
"oOOO+......++++XX+++++++++++++++",
"oOOO+......++++XX+++++++++++++++",
"o.OO+......++++XX+++++++++++++++",
"o    XXXXXXXXXXXXXXXXXXXX+++++++",
"oOOOOO.X+++++++++++++++XX+++++++",
"oOOOOOOX+++++++++++++++XX+++++++",
"oOOOOOOX+++++++++++++++XX+++++++",
"oOOOOOOX+++++++++++++++XX+++++++",
"oOOOOOOX+++++++++++++++XX+++++++",
"oOOOOOOX+++++++++++++++XX+++++++",
"o.OOOOOX+++++++++++++++XX+++++++",
"o    XXXXXXXXXXXXXXXXXXXX+++++++",
"oOOOOOOOOOOOOOOOOOOOOOOOOOOOOO.+",
"oOOOOOOOOOOOOOOOOOOOOOOOOOOOOOO.",
"oOOOOOOOOOOOOOOOOOOOOOOOOOOOOOO.",
"oOOOOOOOOOOOOOOOOOOOOOOOOOOOOOO.",
"oOOOOOOOOOOOOOOOOOOOOOOOOOOOOOO.",
"o.OOOOOOOOOOOOOOOOOOOOOOOOOOOO.X",
"oooooooooooooooooooooooooooooooo"
};
