/* XPM */
static char *result[] = {
/* columns rows colors chars-per-pixel */
"32 32 6 1 ",
"  c #37446E",
". c #566A89",
"X c #38002C",
"o c black",
"O c #8BABBF",
"+ c #222A5C",
/* pixels */
"+++++++XXXXXXXXXXXXXXXXXXXX    o",
"+++++++XX+++++++++++++++X.OOOOOo",
"+++++++XX+++++++++++++++XOOOOOOo",
"+++++++XX+++++++++++++++XOOOOOOo",
"+++++++XX+++++++++++++++XOOOOOOo",
"+++++++XX+++++++++++++++XOOOOOOo",
"+++++++XX+++++++++++++++XOOOOOOo",
"+++++++XX+++++++++++++++XOOOOO.o",
"+++++++XXXXXXXXXXXXXXXXXXXX    o",
"+++++++++++++++XX++++......+.OOo",
"+++++++++++++++XX++++......+OOOo",
"+++++++++++++++XX++++......+OOOo",
"+++++++++++++++XX++++......+OOOo",
"+++++++++++++++XX++++......+OOOo",
"+++++++++++++++XX++++......+OOOo",
"+++++++++++++++XX++++......+OO.o",
"+++++++XXXXXXXXXXXXXXXXXXXX    o",
"+++++++XX+++++++++++++++X.OOOOOo",
"+++++++XX+++++++++++++++XOOOOOOo",
"+++++++XX+++++++++++++++XOOOOOOo",
"+++++++XX+++++++++++++++XOOOOOOo",
"+++++++XX+++++++++++++++XOOOOOOo",
"+++++++XX+++++++++++++++XOOOOOOo",
"+++++++XX+++++++++++++++XOOOOO.o",
"+++++++XXXXXXXXXXXXXXXXXXXX    o",
"+.OOOOOOOOOOOOOOOOOOOOOOOOOOOOOo",
".OOOOOOOOOOOOOOOOOOOOOOOOOOOOOOo",
".OOOOOOOOOOOOOOOOOOOOOOOOOOOOOOo",
".OOOOOOOOOOOOOOOOOOOOOOOOOOOOOOo",
".OOOOOOOOOOOOOOOOOOOOOOOOOOOOOOo",
"X.OOOOOOOOOOOOOOOOOOOOOOOOOOOO.o",
"oooooooooooooooooooooooooooooooo"
};
