/* XPM */
static char *_dac160da9a94194ce2cabd2ea9ce8f7Juyuy5mTwgRbCNhS[] = {
/* columns rows colors chars-per-pixel */
"32 32 140 2 ",
"   c None",
".  c #DE6E04",
"X  c #E17405",
"o  c #E57C06",
"O  c #E37C0B",
"+  c #E78103",
"@  c #E88203",
"#  c #EB8A07",
"$  c #E98709",
"%  c #EB8B0B",
"&  c #ED930C",
"*  c #F39E09",
"=  c #EB8E11",
"-  c #E3801D",
";  c #EC9215",
":  c #ED9B12",
">  c #EE951A",
",  c #EF9A1E",
"<  c #F09E1A",
"1  c #F3A20D",
"2  c #EFA51C",
"3  c #F4A514",
"4  c #F5AF17",
"5  c #F3A61A",
"6  c #F4AB1A",
"7  c #F5B11E",
"8  c #EB9424",
"9  c #EF9C21",
"0  c #F09F26",
"q  c #EDA42B",
"w  c #F0A227",
"e  c #F6AD23",
"r  c #F0A229",
"t  c #F4AC2F",
"y  c #F6B624",
"u  c #F7BD24",
"i  c #F8BF27",
"p  c #F7B42A",
"a  c #F7B82A",
"s  c #ECA43F",
"d  c #F2A630",
"f  c #F4AD34",
"g  c #F3AE3A",
"h  c #F5B037",
"j  c #F6BB32",
"k  c #F5B23C",
"l  c #F4BB3F",
"z  c #F8BF3F",
"x  c #F8C126",
"c  c #F7C32B",
"v  c #F8C42A",
"b  c #F9CA2D",
"n  c #FBD02F",
"m  c #FACF33",
"M  c #F8C33E",
"N  c #FACB3D",
"B  c #FCD433",
"V  c #FDD835",
"C  c #FCD43E",
"Z  c #FDD93B",
"A  c #E8994D",
"S  c #EAA24C",
"D  c #F2AD46",
"F  c #F6B647",
"G  c #F6B843",
"H  c #F5B648",
"J  c #F6B94A",
"K  c #EEAE54",
"L  c #F3B556",
"P  c #F5BC55",
"I  c #F8BE52",
"U  c #EEB469",
"Y  c #F6C146",
"T  c #F8C347",
"R  c #F6C44D",
"E  c #F9C34A",
"W  c #F9C94A",
"Q  c #FBD143",
"!  c #FDDB44",
"~  c #FDDC4B",
"^  c #F6C154",
"/  c #F8C454",
"(  c #F9CE54",
")  c #F4C35F",
"_  c #FDDD54",
"`  c #FBD258",
"'  c #FDDD5A",
"]  c #FDE05F",
"[  c #F7CC64",
"{  c #F9CD64",
"}  c #FAD363",
"|  c #FBDA64",
" . c #F7D16C",
".. c #FAD36C",
"X. c #FCDD6C",
"o. c #FAD375",
"O. c #FBDC71",
"+. c #F7D07A",
"@. c #FAD57A",
"#. c #FAD97B",
"$. c #FDE062",
"%. c #FEE269",
"&. c #FEE373",
"*. c #FDE47C",
"=. c #FBDE84",
"-. c #F9DB8B",
";. c #FDE584",
":. c #FEE886",
">. c #FBE28D",
",. c #FEE88E",
"<. c #FEE88B",
"1. c #FCE191",
"2. c #FDE395",
"3. c #FCE397",
"4. c #FDE794",
"5. c #FDE891",
"6. c #FEEA90",
"7. c #FEEA92",
"8. c #FDE995",
"9. c #FEEA91",
"0. c #FCE09A",
"q. c #FBE49D",
"w. c #FCE49D",
"e. c #FEEB99",
"r. c #FEEB9A",
"t. c #FEEC9A",
"y. c #FEEC9B",
"u. c #FEEC9C",
"i. c #FEED9E",
"p. c #FEEC9A",
"a. c #FDEAA1",
"s. c #FDEBA3",
"d. c #FEEDA0",
"f. c #FEEDA2",
"g. c #FCE9A7",
"h. c #FEEFAC",
"j. c #FEEFAD",
"k. c #FEEFA9",
"l. c #FEF0AD",
"z. c #FEEDB1",
/* pixels */
"                      ^ ..O.X.&.,.z.g.0.+.                      ",
"                  } X.' Z V V ' e.t.t.u.l.a.{                   ",
"              { X.! V V V V ' e.t.t.t.t.;.Z ! X. .              ",
"            ..~ V V V V B j f w w g ^ *.Z V V ! d.2.            ",
"          ..! V V V x & @ @ @ % = ; = $ & x ! 5.5._ 1.          ",
"        } Z V V B & @ @ ; d G F F F F F g 0 w ;.~ *.u.w.        ",
"      } ! V V b # @ = f F F F J I F F F F F F t X.t.t.d.-.      ",
"      ~ V V n # @ > F F F F F [ %.J F F F F F F J 4.t.t.a.      ",
"    ( V V V & @ , F F F F F F ^ %.J F F F F F F F ^ t.e.$.(     ",
"    ~ V V 7 @ ; F F F F J o.%.%.%.&.2.I F F F h 5 * o.$.V ~     ",
"  Y V V V # @ k F F F F ..%.%.%.&.j.j.O.J h 5 * * * 6 Z V &.@.  ",
"  N V V u @ 9 F F F F F | %.%.S A q.&.t.E * * * * * * Q &.t...  ",
"  C V V < @ k F F F F H %.%.&.D F L =.>.J * * * * * * T t.%.C   ",
"  Z V ' ; = F F F F F F | &.j.@.F 8 . . # * * * * * * k &.V Z   ",
"  V ' e.% , F F F F F F K j.j.&.*.E 1 * * * * * * * * e ~ V V   ",
"  ' e.t.# 0 F F F F F F D U O.:.t.t.;.e * * * * * * * 3 _ V V   ",
"  e.t.t.% w F F F F F F F D - s =.t.t.;.1 * * * * * * 6 ~ V V   ",
"  5.t.t.> w F F F F F P / / e # O #.e.$.4 * * * * * * y ! V B   ",
"  #.t.t.f 9 F F F F F P 5.t.{ * * ) $.V 5 * * * * * * W V V c   ",
"  I t.;.m = F F F F F L u.t.8.W z _ V V : * * * * * * X.V V 6   ",
"  9 ;.Z V & G F F F F < ) t.t.e.$.V V R & * * * * * a _ V V &   ",
"    c V V N w F F F f * + s o.' V c q O * * * * * 1 X.V V i     ",
"    & V ! 5.G G F F 3 * * # o 2 b X # * * * * * * W ~ V V &     ",
"      j 5.5.~ G F f * * * * * 2 l * * * * * * * j ] V V y       ",
"      % #.~ *.t.o.5 * * * * * # o * * * * * * M $.V V v #       ",
"        % O.t.t.t.=.p * * * * * * * * * * 6 } _ V V B %         ",
"          ; =.t.t.e.%.N a 3 * * * * 1 a ` %.Z V V b %           ",
"          + % ..e.$.V V &.k.<.' ' %.$.~ V V V V u # @           ",
"              @ 9 c V &.t.%.V V V V V V V V v & @ +             ",
"                @ @ , [ | V V V V V V b 7 & @ @                 ",
"                    @ @ @ # & : : & # @ @ @                     ",
"                        @ + @ @ @ @ + @                         "
};
