/* XPM */
static char *result[] = {
/* columns rows colors chars-per-pixel */
"32 32 6 1 ",
"  c black",
". c #38002C",
"X c #222A5C",
"o c #37446E",
"O c #566A89",
"+ c #8BABBF",
/* pixels */
"                                ",
" O++++++++++++++++++++++++++++O ",
" ++++++++++++++++++++++++++++++ ",
" ++++++++++++++++++++++++++++++ ",
" ++++++++++++++++++++++++++++++ ",
" ++++++++++++++++++++++++++++++ ",
" O++++++++++++++++++++++++++++O ",
" ++Oooooo..oooo..oooo..oooooO++ ",
" +++.oooo..oooo..oooo..oooo.+++ ",
" +++.OOOOooOOOOooOOOOooOOOO.+++ ",
" +++oOOOOooOOOOooOOOOooOOOOo+++ ",
" +++oOOOOooOOOOooOOOOooOOOOo+++ ",
" O++.OOOO..OOOO..OOOO..OOOO.++O ",
" ooo.oooo..oooo..oooo..oooo.ooo ",
" ++OOOOOOOOOOOOOOOOOOOOOOOOOO++ ",
" +++OOOOOOOOOOOOOOOOOOOOOOOO+++ ",
" O++OOOOOOOOOOOOOOOOOOOOOOOO++O ",
" ooo........................ooo ",
" +++++O..XXXXXX..XXXXXX..O+++++ ",
" ++++++..XXXXXX..XXXXXX..++++++ ",
" ++++++..XXXXXX..XXXXXX..++++++ ",
" ++++++..XXXXXX..XXXXXX..++++++ ",
" ++++++..XXXXXX..XXXXXX..++++++ ",
" O+++++..XXXXXX..XXXXXX..+++++O ",
" ooo........................ooo ",
" ++OXOOOOOOXXXX..XXXXOOOOOOXO++ ",
" +++XOOOOOOXXXX..XXXXOOOOOOX+++ ",
" +++XOOOOOOXXXX..XXXXOOOOOOX+++ ",
" +++XOOOOOOXXXX..XXXXOOOOOOX+++ ",
" +++XOOOOOOXXXX..XXXXOOOOOOX+++ ",
" +++XOOOOOOXXXX..XXXXOOOOOOX+++ ",
" O++XOOOOOOXXXX..XXXXOOOOOOX++O "
};
