/* XPM */
static char *result[] = {
/* columns rows colors chars-per-pixel */
"32 32 6 1 ",
"  c black",
". c #38002C",
"X c #222A5C",
"o c #37446E",
"O c #566A89",
"+ c #8BABBF",
/* pixels */
" oooo......................oooo ",
" +++++O.XXXXXXXXXXXXXXXX.O+++++ ",
" ++++++.XXXXXXXXXXXXXXXX.++++++ ",
" ++++++.XXXXXXXXXXXXXXXX.++++++ ",
" ++++++.XXXXXXXXXXXXXXXX.++++++ ",
" ++++++.XXXXXXXXXXXXXXXX.++++++ ",
" ++++++.XXXXXXXXXXXXXXXX.++++++ ",
" O+++++.XXXXXXXXXXXXXXXX.+++++O ",
" oooo......................oooo ",
" ++OXOOOOOOXXXX..XXXXOOOOOOXO++ ",
" +++XOOOOOOXXXX..XXXXOOOOOOX+++ ",
" +++XOOOOOOXXXX..XXXXOOOOOOX+++ ",
" +++XOOOOOOXXXX..XXXXOOOOOOX+++ ",
" +++XOOOOOOXXXX..XXXXOOOOOOX+++ ",
" +++XOOOOOOXXXX..XXXXOOOOOOX+++ ",
" O++XOOOOOOXXXX..XXXXOOOOOOX++O ",
" oooo......................oooo ",
" +++++O.XXXXXXXXXXXXXXXX.O+++++ ",
" ++++++.XXXXXXXXXXXXXXXX.++++++ ",
" ++++++.XXXXXXXXXXXXXXXX.++++++ ",
" ++++++.XXXXXXXXXXXXXXXX.++++++ ",
" ++++++.XXXXXXXXXXXXXXXX.++++++ ",
" ++++++.XXXXXXXXXXXXXXXX.++++++ ",
" O+++++.XXXXXXXXXXXXXXXX.+++++O ",
" oooo......................oooo ",
" ++++++++++++++++++++++++++++++ ",
" ++++++++++++++++++++++++++++++ ",
" ++++++++++++++++++++++++++++++ ",
" ++++++++++++++++++++++++++++++ ",
" ++++++++++++++++++++++++++++++ ",
" O++++++++++++++++++++++++++++O ",
"                                "
};
