/* XPM */
static char *result[] = {
/* columns rows colors chars-per-pixel */
"32 32 31 1 ",
"  c #2C2116",
". c #3E2D1E",
"X c #4C3928",
"o c #523F2C",
"O c #634E38",
"+ c #66513D",
"@ c #413D4F",
"# c gray28",
"$ c #67594B",
"% c #766047",
"& c #78624B",
"* c #7C644D",
"= c #796858",
"- c #58526A",
"; c #606060",
": c #766D66",
"> c #727272",
", c #777777",
"< c gray50",
"1 c #836B52",
"2 c #81776F",
"3 c #888078",
"4 c #7A7290",
"5 c #999088",
"6 c #AAA098",
"7 c #AEA59D",
"8 c #B0AAA2",
"9 c #B2ACA4",
"0 c #B3AEA7",
"q c #B9B9B9",
"w c None",
/* pixels */
"wwwwwwwwwwwwwwwwwwwwwwwwwwwwwwww",
"wwwwwww444444444444444444wwwwwww",
"wwwww44------------------44wwwww",
"wwww4----------------------4wwww",
"www4------------------------4www",
"ww4----@@@@@@@@@@@@@@@@@@----4ww",
"w4----@@                @@----4w",
"4----@@  %1 O1 %& $= ==  @@----4",
"4---@@ X XO XX OX XO  O % @@---4",
"4---@ Xo XX XX OX XOO X XX @---4",
"4---@ Xo XX XX oo XX  X oX @---4",
"4---@5785555555095555555775@---4",
"4---@:23:::::::22:::::::22:@---4",
"4---@ .. .. .. . ... .. .. @---4",
"4---@ Oo Xo Xo X oXo Xo Xo @---4",
"4---@ Oo Xo Xo X OXo Oo Xo @---4",
"4---@ Oo X* Xo X OXo Oo Xo @---4",
"4---@ Oo Oo Xo X %Oo Oo Oo @---4",
"4---@ Oo Oo Xo X  Oo Oqqqo @---4",
"4---@ Oo Oo Xo %O Oo O>,>o @---4",
"4---@ Oo Oo Xo OO Oo ;###; @---4",
"4---@ Oo OX XX XO OXqoX Ooq@---4",
"4---@ Oo OX XX XO OX;oX OX;@---4",
"4---@ Oo OX  X XO OX ><<<> @---4",
"4---@ XX O+* X XO OX o###X @---4",
"4---@ XX XXo X XX O  oX XX @---4",
"4---@ XX Xo XX XX o ooX XX @---4",
"4---@5685555555685555555685@---4",
"4---@:22:::::::22:::::::22:@---4",
"4---@ .. .. .. .. .. .. .. @---4",
"4---@ XX  X XX XX XX XX XX @---4",
"4---@ XX+ X +X XO XX XX XX @---4"
};
