/* XPM */
static char *result[] = {
/* columns rows colors chars-per-pixel */
"64 64 6 1 ",
"  c #252241",
". c #2C3068",
"X c #383168",
"o c #3C5393",
"O c #5CA6E1",
"+ c None",
/* pixels */
"++++++++++++++++++++++++++++++++++++++++++++++++++++++++++++++++",
"++++++++++++++++++++++++++++++++++++++++++++++++++++++++++++++++",
"++++++++++++++++++++++++++++++++++++++++++++++++++++++++++++++++",
"++++++++++++++++++++++++++++++++++++++++++++++++++++++++++++++++",
"+++++++++++++++++++++++++             ++++++++++++++++++++++++++",
"+++++++++++++++++++++ +  ...... ......  + ++++++++++++++++++++++",
"+++++++++++++++++++  . ..OOOOO. .OOOOO.. .  ++++++++++++++++++++",
"+++++++++++++++++  ... ..ooooo. .ooooo.. ...  ++++++++++++++++++",
"++++++++++++++++ ..OO.. .ooooo. .ooooo. ..OO.. +++++++++++++++++",
"+++++++++++++++ .OOooO. ..oooo. .oooo.. .OooOO. ++++++++++++++++",
"+++++++++++++  .Oooooo.. ...... ...... ..oooooO.  ++++++++++++++",
"++++++++++++ ..Ooooooo..  ....   ..... ..ooooooO.. +++++++++++++",
"+++++++++++ . ..ooooo..                 ..ooooo.. . ++++++++++++",
"+++++++++++ .. ..ooo..                   ..ooo.. .. ++++++++++++",
"++++++++++ .OO. .....                     ..... .OO. +++++++++++",
"++++++++++ .ooO. ...                       ... .Ooo. +++++++++++",
"+++++++++ .OoooO.                             .OoooO. ++++++++++",
"+++++++++ .ooooo.                             .ooooo. ++++++++++",
"++++++++ ...ooo..           XXXXXXX           ..ooo... +++++++++",
"++++++++ .......          XXXXXXXXXXX          ....... +++++++++",
"+++++++++   ...         XXXXXXXXXXXXXXX         ...   ++++++++++",
"++++++++ ...           XXXXXXXXXXXXXXXXX           ... +++++++++",
"++++++++ .....        XXXXXXXXXXXXXXXXXXX        ..... +++++++++",
"++++++++ .OOO..       XXXXXXXXXXXXXXXXXXX       ..OOO. +++++++++",
"++++++++ .oooO.      XXXXXXXXXXXXXXXXXXXXX      .Oooo. +++++++++",
"++++++++ .oooo.      XXXXXXXXXXXXXXXXXXXXX      .oooo. +++++++++",
"++++++++ .oooo.     XXXXXXXXXXXXXXXXXXXXXXX     .oooo. +++++++++",
"++++++++ .oooo.     XXXXXXXXXXXXXXXXXXXXXXX     .oooo. +++++++++",
"++++++++ ......     XXXXXXXXXXXXXXXXXXXXXXX     ...... +++++++++",
"++++++++ .....      XXXXXXXXXXXXXXXXXXXXXXX      ..... +++++++++",
"+++++++++           XXXXXXXXXXXXXXXXXXXXXXX           ++++++++++",
"++++++++ .....      XXXXXXXXXXXXXXXXXXXXXXX      ..... +++++++++",
"++++++++ .OOOO.     XXXXXXXXXXXXXXXXXXXXXXX     .OOOO. +++++++++",
"++++++++ .oooo.     XXXXXXXXXXXXXXXXXXXXXXX     .oooo. +++++++++",
"++++++++ .oooo.     XXXXXXXXXXXXXXXXXXXXXXX     .oooo. +++++++++",
"++++++++ .oooo.     XXXXXXXXXXXXXXXXXXXXXXX     .oooo. +++++++++",
"++++++++ .oooo.     XXXXXXXXXXXXXXXXXXXXXXX     .oooo. +++++++++",
"++++++++ ......     XXXXXXXXXXXXXXXXXXXXXXX     ...... +++++++++",
"++++++++ .....      XXXXXXXXXXXXXXXXXXXXXXX      ..... +++++++++",
"+++++++++           XXXXXXXXXXXXXXXXXXXXXXX           ++++++++++",
"++++++++ .....      XXXXXXXXXXXXXXXXXXXXXXX      ..... +++++++++",
"++++++++ .OOOO.     XXXXXXXXXXXXXXXXXXXXXXX     .OOOO. +++++++++",
"++++++++ .oooo.     XXXXXXXXXXXXXXXXXXXXXXX     .oooo. +++++++++",
"++++++++ .oooo.     XXXXXXXXXXXXXXXXXXXXXXX     .oooo. +++++++++",
"++++++++ .oooo.     XXXXXXXXXXXXXXXXXXXXXXX     .oooo. +++++++++",
"++++++++ .oooo.     XXXXXXXXXXXXXXXXXXXXXXX     .oooo. +++++++++",
"++++++++ .oooo.     XXXXXXXXXXXXXXXXXXXXXXX     .oooo. +++++++++",
"++++++++ ......     XXXXXXXXXXXXXXXXXXXXXXX     ...... +++++++++",
"++++++++ .....      XXXXXXXXXXXXXXXXXXXXXXX      ..... +++++++++",
"+++++++++           XXXXXXXXXXXXXXXXXXXXXXX           ++++++++++",
"++++++++ .....      XXXXXXXXXXXXXXXXXXXXXXX      ..... +++++++++",
"++++++++ .OOOO.     XXXXXXXXXXXXXXXXXXXXXXX     .OOOO. +++++++++",
"++++++++ .oooo.     XXXXXXXXXXXXXXXXXXXXXXX     .oooo. +++++++++",
"++++++++ .oooo.     XXXXXXXXXXXXXXXXXXXXXXX     .oooo. +++++++++",
"++++++++ .....      XXXXXXXXXXXXXXXXXXXXXXX      ..... +++++++++",
"+++++++++           XXXXXXXXXXXXXXXXXXXXXXX           ++++++++++",
"++++++++ .....      XXXXXXXXXXXXXXXXXXXXXXX      ..... +++++++++",
"++++++++ .oOOo.      XXXXXXXXXXXXXXXXXXXXX      .oOOo. +++++++++",
"+++++++  .....        XXXXXXXXXXXXXXXXXXX        .....  ++++++++",
"++++++                                                   +++++++",
"++++++++++++++++++++++++++++++++++++++++++++++++++++++++++++++++",
"++++++++++++++++++++++++++++++++++++++++++++++++++++++++++++++++",
"++++++++++++++++++++++++++++++++++++++++++++++++++++++++++++++++",
"++++++++++++++++++++++++++++++++++++++++++++++++++++++++++++++++"
};
