/* XPM */
static char *result[] = {
/* columns rows colors chars-per-pixel */
"32 32 111 2 ",
"   c #24213F",
".  c #29213F",
"X  c #242242",
"o  c #2B2341",
"O  c #27254B",
"+  c #2A264E",
"@  c #28294E",
"#  c #332341",
"$  c #3C2541",
"%  c #3B2B47",
"&  c #272751",
"*  c #292753",
"=  c #272853",
"-  c #2A2955",
";  c #2A2B5A",
":  c #302A56",
">  c #322B5C",
",  c #392B5D",
"<  c #2C315C",
"1  c #2C2E62",
"2  c #342D62",
"3  c #382D63",
"4  c #2D3365",
"5  c #2E346B",
"6  c #2F386C",
"7  c #363061",
"8  c #3D3162",
"9  c #3B346A",
"0  c #313C6C",
"q  c #3E386B",
"w  c #2F3770",
"e  c #313B73",
"r  c #323E7A",
"t  c #422642",
"y  c #4A2743",
"u  c #442843",
"i  c #4B2944",
"p  c #502741",
"a  c #532B45",
"s  c #5A2C45",
"d  c #47304A",
"f  c #49314A",
"g  c #5E3048",
"h  c #642A43",
"j  c #6C2E46",
"k  c #712F47",
"l  c #62324A",
"z  c #6A334A",
"x  c #733249",
"c  c #7A374D",
"v  c #753E51",
"b  c #7C3E51",
"n  c #40376B",
"m  c #41387F",
"M  c #32416F",
"N  c #334274",
"B  c #34417B",
"V  c #364A7D",
"C  c #7C4253",
"Z  c #823E51",
"A  c #844254",
"S  c #894556",
"D  c #8E4958",
"F  c #944E5C",
"G  c #97515E",
"H  c #98515E",
"J  c #443B84",
"K  c #354481",
"L  c #374984",
"P  c #384D85",
"I  c #394D8B",
"U  c #395286",
"Y  c #3B548C",
"T  c #3C598F",
"R  c #3C5493",
"E  c #3E5A94",
"W  c #3F5C9A",
"Q  c #4F4994",
"!  c #524E96",
"~  c #524E98",
"^  c #415F9E",
"/  c #545297",
"(  c #585297",
")  c #555299",
"_  c #58559D",
"`  c #5C589C",
"'  c #61599B",
"]  c #40609A",
"[  c #68619F",
"{  c #5A58A0",
"}  c #4263A1",
"|  c #466DAB",
" . c #4771AC",
".. c #4874B1",
"X. c #6E66A1",
"o. c #6365AC",
"O. c #6568AE",
"+. c #696BAE",
"@. c #6A6EB1",
"#. c #6D71B3",
"$. c #7477B5",
"%. c #7D7BB2",
"&. c #8281B6",
"*. c #8E8CBA",
"=. c #9692BD",
"-. c #9A95BC",
";. c #A29EC3",
":. c #A3A1C5",
">. c #AFABC8",
",. c #B2ADC9",
"<. c None",
/* pixels */
"<.<.<.<.<.<.<.<.<.<.<.* < < ; O < < < O <.<.<.<.<.<.<.<.<.<.<.<.",
"<.<.<.<.<.<.<.<.@ ; & e ....E = ] .. .6 = - O <.<.<.<.<.<.<.<.<.",
"<.<.<.<.<.<.<.0 ] W ; 5 R R K - I R Y 4 4 } E 0 <.<.<.<.<.<.<.<.",
"<.<.<.<.<.O V  .} ^ w - 0 r w * w r 6 = r ^ } | N O <.<.<.<.<.<.",
"<.<.<.<.O ; Y R R L 1 X O = O X & = * O 4 I R R Y - O <.<.<.<.<.",
"<.<.<.<.N V ; B K 1 O o t $ o X o $ $   O 4 K r ; P 0 <.<.<.<.<.",
"<.<.<.; E | L ; ; O   t x k u X p k k $ X O ; ; U | Y * <.<.<.<.",
"<.<.<.4 E R R O   t o g F D a X g F F a # $   = R R E < <.<.<.<.",
"<.<.O 1 w B 4 O t h # l G F a X g G F g $ h $ o 4 r 6 ; O <.<.<.",
"<.<.O - = - X # x j # l G F a X g G F a # k z . O ; = = <.<.<.<.",
"<.<.O L Y < X a S b o l G F a   g F F g # A S y X 4 E B O <.<.<.",
"<.<.O Y | R O g H Z # l G F a   l G F g # S H s O W | L O <.<.<.",
"<.<.O K R L O $ b g X t C v #   $ C v $ . l v . O I R B O <.<.<.",
"<.<.O e K e O , 9 9 9 9 9 9 9 9 9 9 q q q q 9 > O r B w O <.<.<.",
"<.<.O ; = O - ` O.o.o.o.O.O.O.o.O.@.&.=.;.=.+.) + & - = <.<.<.<.",
"<.<.O N I 0 ; _ @.@.@.@.@.@.@.@.@.$.*.;.>.:.#.~ & N U 0 O <.<.<.",
"<.<.O R | Y - J Q Q Q Q Q Q Q ! Q ~ ( ' ' ' Q m - ^ | I O <.<.<.",
"<.<.O K R K O * , > > > , , > , > , , > : > , * + K R r O <.<.<.",
"<.<.& e K e O t h a o t h h . o t h h $ o s h $ + r K w O <.<.<.",
"<.<.& - - *   s S x # h S Z i X s S A p $ c Z i X & - - <.<.<.<.",
"<.<.O e V 0 X g G Z . l G F a   l H G a # S G a X M P 0 O <.<.<.",
"<.<.O E ..R O l H Z # l G G a X h G F g # S G a O ^  .I X <.<.<.",
"<.<.O K R K O u C g . i A C $ X u A C u o z C $ O L R e O <.<.<.",
"<.<.O K R B O : 8 8 > 2 8 8 2 2 2 8 8 7 7 8 8 - & L R r O <.<.<.",
"<.<.O 6 w 5 * _ O.o.o.o.o.{ o.o.o.+.%.*.-.*.o.! - 4 w 5 O <.<.<.",
"<.<.<.= * O - { @.@.@.@.@.@.@.@.@.$.*.:.,.;.$.( + & = * <.<.<.<.",
"<.<.+ Y | U - J ~ ~ ~ ~ ~ ~ ~ ~ ~ ) ' [ X.' ! J - T | P O <.<.<.",
"<.<.O L ^ L + > 3 2 2 2 3 3 3 2 2 3 3 2 2 3 3 : + I W B O <.<.<.",
"<.<.+ ; ; - X $ h y . t h s $ X t h s . o a s . X ; 4 ; <.<.<.<.",
"<.<.@ 4 V 4 X p Z z . a Z Z u X p A Z p # x Z y X 4 V 4 O <.<.<.",
"<.<.O 6 P 0 X o f % X # f f o X # f f # X % d o O 0 P 4 O <.<.<.",
"<.<.X <.<.<.<.<.<.<.<.<.<.<.<.<.<.<.<.<.<.<.<.<.<.<.<.<.  <.<.<."
};
