/* XPM */
static char *result[] = {
/* columns rows colors chars-per-pixel */
"32 32 2 1 ",
"  c #38002C",
". c #222A5C",
/* pixels */
"                                ",
".......  ..............  .......",
".......  ..............  .......",
".......  ..............  .......",
".......  ..............  .......",
".......  ..............  .......",
".......  ..............  .......",
".......  ..............  .......",
".......                    .....",
"...............  ...............",
"...............  ...............",
"...............  ...............",
"...............  ...............",
"...............  ...............",
"...............  ...............",
"...............  ...............",
".....                    .......",
".......  ..............  .......",
".......  ..............  .......",
".......  ..............  .......",
".......  ..............  .......",
".......  ..............  .......",
".......  ..............  .......",
".......  ..............  .......",
"                                ",
"...............  ...............",
"...............  ...............",
"...............  ...............",
"...............  ...............",
"...............  ...............",
"...............  ...............",
"...............  ..............."
};
