/* XPM */
static char *_9d8845cc6cd4e04fdcdb8374d0fa219ebtvjGKCbtozUy9J[] = {
/* columns rows colors chars-per-pixel */
"32 32 187 2 ",
"   c None",
".  c black",
"X  c #000001",
"o  c #010101",
"O  c #020101",
"+  c #010102",
"@  c #020202",
"#  c #030202",
"$  c #040303",
"%  c #050303",
"&  c #040402",
"*  c #030304",
"=  c #040505",
"-  c #060404",
";  c #060504",
":  c #060505",
">  c #050506",
",  c #060607",
"<  c #080604",
"1  c #080605",
"2  c #090605",
"3  c #090706",
"4  c #0A0807",
"5  c #0B0807",
"6  c #0C0807",
"7  c #070708",
"8  c #080809",
"9  c #0C0908",
"0  c #0D0908",
"q  c #0D0A08",
"w  c #0F0B09",
"e  c #0A0A0C",
"r  c #0A0B0C",
"t  c #0B0B0C",
"y  c #0A0B0D",
"u  c #0B0B0D",
"i  c #110C0A",
"p  c #120D0B",
"a  c #15110E",
"s  c #17110E",
"d  c #17130F",
"f  c #19120F",
"g  c #0E0F11",
"h  c #0F0F12",
"j  c #111214",
"k  c #131417",
"l  c #131517",
"z  c #171516",
"x  c #171616",
"c  c #1A1511",
"v  c #1C1511",
"b  c #1C1713",
"n  c #171719",
"m  c #15171B",
"M  c #17171B",
"N  c #19191B",
"B  c #1A1A1B",
"V  c #1C1918",
"C  c #191B1F",
"Z  c #211814",
"A  c #211C1A",
"S  c #261E19",
"D  c #2B1E1A",
"F  c #2F211C",
"G  c #31231E",
"H  c #33241F",
"J  c #1C1E22",
"K  c #1D1F23",
"L  c #1D1F24",
"P  c #1E2025",
"I  c #1F2025",
"U  c #1F2126",
"Y  c #2F2723",
"T  c #24262C",
"R  c #24272C",
"E  c #25272C",
"W  c #25272D",
"Q  c gray18",
"!  c #382722",
"~  c #362B24",
"^  c #3B2A24",
"/  c #382D25",
"(  c #3E3229",
")  c #272930",
"_  c #272A30",
"`  c #282A30",
"'  c #282A31",
"]  c #292B32",
"[  c #2A2C33",
"{  c #2A2D34",
"}  c #2B2D34",
"|  c #2B2E35",
" . c #2D2F37",
".. c #2D3037",
"X. c #2E3138",
"o. c #2F3239",
"O. c #2F323A",
"+. c gray19",
"@. c #30333A",
"#. c #31343B",
"$. c #31343C",
"%. c #32353C",
"&. c #32353D",
"*. c #45362D",
"=. c #4D362F",
"-. c #4F3730",
";. c #493B30",
":. c #4E3F34",
">. c #553B33",
",. c #5C4037",
"<. c #53443A",
"1. c #5A473B",
"2. c #59483B",
"3. c #63443B",
"4. c #4C4C4D",
"5. c #5A5A5A",
"6. c #755147",
"7. c #775247",
"8. c #7E574C",
"9. c #705A4D",
"0. c #855D50",
"q. c #8A6053",
"w. c #8D6255",
"e. c #8E6356",
"r. c #836957",
"t. c #846A58",
"y. c #876D5B",
"u. c #926658",
"i. c #937562",
"p. c #9F7463",
"a. c #A67364",
"s. c #AB7767",
"d. c #AC7868",
"f. c #AE7969",
"g. c #B17D6C",
"h. c #B77F6E",
"j. c #A08069",
"k. c #A0806A",
"l. c #A2836C",
"z. c #A88770",
"x. c #A98870",
"c. c #B58773",
"v. c #BE8472",
"b. c #B18E76",
"n. c #C08574",
"m. c #C38775",
"M. c #C78A78",
"N. c #CE8F7C",
"B. c #CE907C",
"V. c #CE907D",
"C. c #CF907D",
"Z. c #CF917D",
"A. c #CF917E",
"S. c #CF937F",
"D. c #C1987F",
"F. c #C09A7F",
"G. c #D0937F",
"H. c #D0947F",
"J. c #909090",
"K. c #C79D83",
"L. c #C79F84",
"P. c #C99B82",
"I. c #D49B84",
"U. c #D59C85",
"Y. c #C7A084",
"T. c #CDA388",
"R. c #D1A489",
"E. c #D8A289",
"W. c #D9A38A",
"Q. c #DBA78D",
"!. c #D3A98C",
"~. c #D6AC8E",
"^. c #DDAB8F",
"/. c #DEAD90",
"(. c #DEAD91",
"). c #DFAF92",
"_. c #DDB192",
"`. c #DEB193",
"'. c #DEB294",
"]. c #DFB394",
"[. c #E0B193",
"{. c #E0B194",
"}. c #E1B294",
"|. c #E1B495",
" X c #E2B596",
".X c #CBCBCB",
"XX c #D2D2D2",
/* pixels */
"      o                                                 o       ",
"      o o                                             o o       ",
"      = e o             o o o o o o o o             o e =       ",
"      = o.e o     o o * j P T _ ] T J l = o o     o e o.=       ",
"      = &.o.e o o 8 T &.&.&.&.&.&.&.&.&.&.J * o o e o.&.=       ",
"      = &.&.o.l J &.&.&.&.&.&.&.&.&.&.&.&.&.@.C l @.&.&.=       ",
"      = &.&.&.&.&.&.&.&.&.&.&.&.&.&.&.&.&.&.&.&.&.&.&.&.=       ",
"      = &.&.&.&.&.&.&.&.&.&.&.&.&.&.&.&.&.&.&.&.&.&.&.&.=       ",
"      = &.&.&.&.&.&.&.&.&.&.&.&.&.&.&.&.&.&.&.&.&.&.&.&.=       ",
"      = &.&.&.&.&.&.&.&.&.&.&.&.&.&.&.&.&.&.&.&.&.&.&.&.=       ",
"      = &.&.&.&.&.&.&.&.&.&.&.&.&.&.&.&.&.&.&.&.&.&.&.&.=       ",
"      = &.&.&.&.&.&.&._ | &.&.&.&.&.&.| _ &.&.&.&.&.&.&.=       ",
"      = &.&.&.&.&.&.&.&. .| &.&.&.&.|  .&.&.&.&.&.&.&.&.=       ",
"      = &.&.&.o.h P &.&.&...o.&.&.o...&.&.&.P h o.&.&.&.=       ",
"      = &.&.&.] +.5.e m | &.&.&.&.&.&.| m e 5.+.] &.&.&.=       ",
"      = &.&.&...B .XXXJ.e h [ &.&.[ h e J.XX.XB ..&.&.&.=       ",
"      = &.&.&.&.P 7 4.Q e L &.&.&.&.L e Q 4.7 P &.&.&.&.=       ",
"      = &.&.&.&.&.&.] | &.&.&.&.&.&.&.&.| ] &.&.&.&.&.&.=       ",
"      7 &.&.&.&.&.&.&.&.&.&.&.&.&.&.&.&.&.&.&.&.&.&.&.&.7       ",
"      = V z B J T | #.&.&.&.&.&.&.&.&.&.&.#.| T J B z V =       ",
"      s  X].L.z.r.<.Y A z T &.&.&.&.T z A Y <.t.x.Y.]. Xb       ",
"      =  X X X X X X X X`.9.m &.&.m 9.`. X X X X X X X X=       ",
"      o R. X X X X X X X X Xy.m m y. X X X X X X X X XK.o       ",
"      o c. X X X X X X X X X Xj.l. X X Xj.( ]. X X X Xp.o       ",
"      % 0.(. X X X X X X X X X X X~.i.*.2 2. X X X X^.8.w       ",
"      = H Z.(. X X X X X X X1.~ / s o o S b. X X X^.H.! 4       ",
"        o f.Z.W.{. X X X X X`.;.c s b :.!. X X[.U.N.e.o         ",
"        w F n.N.Z.I.Q.^.(.{. X X].D.T.D.P.W.U.Z.N.M.f &         ",
"          4 D n.N.N.N.N.N.N.Z.G.Z.g.f.v.N.N.N.N.a.G 2           ",
"            4 i ,.s.N.N.N.N.N.N.N.N.N.N.N.N.h.=.o 2             ",
"                4 o Z ^ -.3.7.q.u.e.7.>.H i o w                 ",
"                      o % 6 2 o o o w 2 o                       "
};
