/* XPM */
static char *result[] = {
/* columns rows colors chars-per-pixel */
"32 32 187 2 ",
"   c black",
".  c #000001",
"X  c #010101",
"o  c #020101",
"O  c #010102",
"+  c #020202",
"@  c #030202",
"#  c #040303",
"$  c #050303",
"%  c #040402",
"&  c #030304",
"*  c #040505",
"=  c #060404",
"-  c #060504",
";  c #060505",
":  c #050506",
">  c #060607",
",  c #080604",
"<  c #080605",
"1  c #090605",
"2  c #090706",
"3  c #0A0807",
"4  c #0B0807",
"5  c #0C0807",
"6  c #070708",
"7  c #080809",
"8  c #0C0908",
"9  c #0D0908",
"0  c #0D0A08",
"q  c #0F0B09",
"w  c #0A0A0C",
"e  c #0A0B0C",
"r  c #0B0B0C",
"t  c #0A0B0D",
"y  c #0B0B0D",
"u  c #110C0A",
"i  c #120D0B",
"p  c #15110E",
"a  c #17110E",
"s  c #17130F",
"d  c #19120F",
"f  c #0E0F11",
"g  c #0F0F12",
"h  c #111214",
"j  c #131417",
"k  c #131517",
"l  c #171516",
"z  c #171616",
"x  c #1A1511",
"c  c #1C1511",
"v  c #1C1713",
"b  c #171719",
"n  c #15171B",
"m  c #17171B",
"M  c #19191B",
"N  c #1A1A1B",
"B  c #1C1918",
"V  c #191B1F",
"C  c #211814",
"Z  c #211C1A",
"A  c #261E19",
"S  c #2B1E1A",
"D  c #2F211C",
"F  c #31231E",
"G  c #33241F",
"H  c #1C1E22",
"J  c #1D1F23",
"K  c #1D1F24",
"L  c #1E2025",
"P  c #1F2025",
"I  c #1F2126",
"U  c #2F2723",
"Y  c #24262C",
"T  c #24272C",
"R  c #25272C",
"E  c #25272D",
"W  c gray18",
"Q  c #382722",
"!  c #362B24",
"~  c #3B2A24",
"^  c #382D25",
"/  c #3E3229",
"(  c #272930",
")  c #272A30",
"_  c #282A30",
"`  c #282A31",
"'  c #292B32",
"]  c #2A2C33",
"[  c #2A2D34",
"{  c #2B2D34",
"}  c #2B2E35",
"|  c #2D2F37",
" . c #2D3037",
".. c #2E3138",
"X. c #2F3239",
"o. c #2F323A",
"O. c gray19",
"+. c #30333A",
"@. c #31343B",
"#. c #31343C",
"$. c #32353C",
"%. c #32353D",
"&. c #45362D",
"*. c #4D362F",
"=. c #4F3730",
"-. c #493B30",
";. c #4E3F34",
":. c #553B33",
">. c #5C4037",
",. c #53443A",
"<. c #5A473B",
"1. c #59483B",
"2. c #63443B",
"3. c #4C4C4D",
"4. c #5A5A5A",
"5. c #755147",
"6. c #775247",
"7. c #7E574C",
"8. c #705A4D",
"9. c #855D50",
"0. c #8A6053",
"q. c #8D6255",
"w. c #8E6356",
"e. c #836957",
"r. c #846A58",
"t. c #876D5B",
"y. c #926658",
"u. c #937562",
"i. c #9F7463",
"p. c #A67364",
"a. c #AB7767",
"s. c #AC7868",
"d. c #AE7969",
"f. c #B17D6C",
"g. c #B77F6E",
"h. c #A08069",
"j. c #A0806A",
"k. c #A2836C",
"l. c #A88770",
"z. c #A98870",
"x. c #B58773",
"c. c #BE8472",
"v. c #B18E76",
"b. c #C08574",
"n. c #C38775",
"m. c #C78A78",
"M. c #CE8F7C",
"N. c #CE907C",
"B. c #CE907D",
"V. c #CF907D",
"C. c #CF917D",
"Z. c #CF917E",
"A. c #CF937F",
"S. c #C1987F",
"D. c #C09A7F",
"F. c #D0937F",
"G. c #D0947F",
"H. c #909090",
"J. c #C79D83",
"K. c #C79F84",
"L. c #C99B82",
"P. c #D49B84",
"I. c #D59C85",
"U. c #C7A084",
"Y. c #CDA388",
"T. c #D1A489",
"R. c #D8A289",
"E. c #D9A38A",
"W. c #DBA78D",
"Q. c #D3A98C",
"!. c #D6AC8E",
"~. c #DDAB8F",
"^. c #DEAD90",
"/. c #DEAD91",
"(. c #DFAF92",
"). c #DDB192",
"_. c #DEB193",
"`. c #DEB294",
"'. c #DFB394",
"]. c #E0B193",
"[. c #E0B194",
"{. c #E1B294",
"}. c #E1B495",
"|. c #E2B596",
" X c #CBCBCB",
".X c #D2D2D2",
"XX c None",
/* pixels */
"XXXXXXX XXXXXXXXXXXXXXXXXXXXXXXXXXXXXXXXXXXXXXXXXXXXXXXXX XXXXXX",
"XXXXXX  O XXXXXXXXXXXXXXXXXXXXXXXXXXXXXXXXXXXXXXXXXXXXO   XXXXXX",
"XXXXXX* w X XXXXXXXXXXXX. O         O . XXXXXXXXXXXXX w * XXXXXX",
"XXXXXX> X.w X XXXX+   & h L Y ) _ T H j : X   XXXXX e o.> XXXXXX",
"XXXXXX> %.X.w X . 7 E %.%.%.%.%.%.%.%.%.#.J & X X t o.%.> XXXXXX",
"XXXXXX> %.%.X.k H #.%.%.%.%.%.%.%.%.%.%.%.%.+.V k +.%.%.> XXXXXX",
"XXXXXX> %.%.%.%.%.%.%.%.%.%.%.%.%.%.%.%.%.%.%.%.%.%.%.%.> XXXXXX",
"XXXXXX> %.%.%.%.%.%.%.%.%.%.%.%.%.%.%.%.%.%.%.%.%.%.%.%.> XXXXXX",
"XXXXXX> %.%.%.%.%.%.%.%.%.%.%.%.%.%.%.%.%.%.%.%.%.%.%.%.> XXXXXX",
"XXXXXX> %.%.%.%.%.%.%.%.%.%.%.%.%.%.%.%.%.%.%.%.%.%.%.%.> XXXXXX",
"XXXXXX> %.%.%.%.%.%.%.$.%.%.%.%.%.%.%.%.%.%.%.%.%.%.%.%.> XXXXXX",
"XXXXXX> %.%.%.%.%.%.%.( } %.%.%.%.%.%.} ( %.%.%.%.%.%.%.> XXXXXX",
"XXXXXX> %.%.%.%.%.%.%.%.| { %.%.%.%.{ | %.%.%.%.%.%.%.%.> XXXXXX",
"XXXXXX> %.%.%...f P #.%.%. ...%.%... .%.%.#.L f ..%.%.%.> XXXXXX",
"XXXXXX> %.%.%.' O.4.w n } %.#.%.%.#.%.} n w 4.O.' %.%.%.> XXXXXX",
"XXXXXX> %.%.%. .N  X.XH.r g ] %.%.] g r H..X XN  .%.%.%.> XXXXXX",
"XXXXXX> %.%.%.%.I 6 3.W y K %.%.%.%.K y W 3.6 I %.%.%.%.> XXXXXX",
"XXXXXX> %.%.%.%.%.%.` { %.%.%.%.%.%.%.%.{ ` %.%.%.%.%.%.> XXXXXX",
"XXXXXX6 %.%.%.%.%.%.%.%.%.%.%.%.%.%.%.%.%.%.%.%.%.%.%.%.6 XXXXXX",
"XXXXXX- B l M H Y [ @.%.%.%.%.%.%.%.%.%.%.@.[ Y H M l B ; XXXXXX",
"XXXXXXa |.'.K.l.e.,.U Z z R %.%.%.%.R z Z U ,.r.z.U.'.|.c XXXXXX",
"XXXXXX= |.|.|.|.|.|.|.|.).8.b %.%.b 8.).|.|.|.|.|.|.|.}.- XXXXXX",
"XXXXXX  T.|.|.|.|.|.|.|.|.|.t.m m t.|.|.|.|.|.|.|.|.|.J.  XXXXXX",
"XXXXXX  x.|.|.|.|.|.|.|.|.|.|.h.k.|.|.|.j./ `.|.|.|.|.i.X XXXXXX",
"XXXXXX$ 9./.|.|.|.|.|.|.|.|.|.|.|.!.u.&.< 1.|.|.|.|.~.7.0 XXXXXX",
"XXXXXX; G Z.^.|.|.|.|.|.|.|.<.! ^ p     A v.|.|.|.~.G.Q 4 XXXXXX",
"XXXXXXXX  d.C.E.[.|.|.|.|.|._.-.x s v ;.Q.|.|.].I.M.q.o XXXXXXXX",
"XXXXXXXXq D n.M.N.P.W.~.(.{.|.|.'.D.Y.S.L.R.I.V.M.m.d % XXXXXXXX",
"XXXXXXXXXX3 S b.M.M.M.M.M.M.B.F.A.f.s.c.M.M.M.M.p.F 1 XXXXXXXXXX",
"XXXXXXXXXXXX3 u >.a.M.M.M.M.M.M.M.M.M.M.M.M.g.*.X 2 XXXXXXXXXXXX",
"XXXXXXXXXXXXXXXX4   C ~ =.2.6.0.y.w.5.:.G i   9 XXXXXXXXXXXXXXXX",
"XXXXXXXXXXXXXXXXXXXXXX  # 5 1 X X @ 8 ,   XXXXXXXXXXXXXXXXXXXXXX"
};
