/* XPM */
static char *result[] = {
/* columns rows colors chars-per-pixel */
"32 32 5 1 ",
"  c black",
". c #222034",
"X c #663931",
"o c None",
"O c #9BADB7",
/* pixels */
"oooooooooooooooooooooooooooooooo",
"oooooooooooooooooooooooooooooooo",
"oooooooooooooooooooooooooooooooo",
"oooooooooooooooooooooooooooooooo",
"oooooooo  oooooooooooo  oooooooo",
"ooooooo .. oooooooooo XX ooooooo",
"ooooooo .. oooooooooo XX ooooooo",
"ooooooo .. oooooooooo XX ooooooo",
"ooooooo ... oooooooo XXX ooooooo",
"oooooo .... oooooooo XXXX oooooo",
"oooooo ...            XXX oooooo",
"oooooo .  ........XXXX  X oooooo",
"oooooo  ..........XXXXXX  oooooo",
"oooooo ..     ...X     XX oooooo",
"ooooo  . OOOOO .X OOOOO X  ooooo",
"ooooo .  OOOOO    OOOOO  X ooooo",
"ooooo .. OOOOO .X OOOOO XX ooooo",
"ooooo ...     ..XX     XXX ooooo",
"ooooo ..........XXXXXXXXXX ooooo",
"ooooo ..........XXXXXXXXXX ooooo",
"ooooo ...... ..  XX XXXXXX ooooo",
"ooooo ...... ..  XX XXXXXX ooooo",
"ooooo .......  .X  XXXXXXX ooooo",
"oooooo .........XXXXXXXXX oooooo",
"ooooooo ........XXXXXXXX ooooooo",
"oooooooo  ......XXXXXX  oooooooo",
"oooooooooo            oooooooooo",
"oooooooooooooooooooooooooooooooo",
"oooooooooooooooooooooooooooooooo",
"oooooooooooooooooooooooooooooooo",
"oooooooooooooooooooooooooooooooo",
"oooooooooooooooooooooooooooooooo"
};
