/* XPM */
static char *_53a2073a24e49e4c63478c767e420c8s5zhIa180hghUl2N[] = {
/* columns rows colors chars-per-pixel */
"32 32 10 1 ",
"  c #37446E",
". c #4D5A67",
"X c #321933",
"o c #566A89",
"O c #38002C",
"+ c #8BABBF",
"@ c #3A4556",
"# c black",
"$ c #222A5C",
"% c None",
/* pixels */
"#    OOOOOOOOOOOOOOOOOOOO$$$$$$$",
"#+++++oO$$$$$$$$$$$$$$$OO$$$$$$$",
"#++++++O$$$$$$$$$$$$$$$OO$$$$$$$",
"#++++++O$$$$$$$$$$$$$$$OO$$$$$$$",
"#++++++O$$$$$$$$$$$$$$$OO$$$$$$$",
"#++++++O$$$$$$$$$$$$$$$OO$$$$$$$",
"#++++++O$$$$$$$$$$$$$$$OO$$$$$$$",
"#o+++++O$$$$$$$$$$$$$$$OO$$$$$$$",
"#    OOOOOOOOOOOOOOOOOOOO$$$$$$$",
"#++o$oooooo$$$$OO$$$$$$$$$$$$$$$",
"#+++$oooooo$$$$OO$$$$$$$$$$$$$$$",
"#+++$oooooo$$$$OO$$$$$$$$$$$$$$$",
"#+++$oooooo$$$$OO$$$$$$$$$$$$$$$",
"#+++$oooooo$$$$OO$$$$$$$$$$$$$$$",
"#+++$oooooo$$$$OO$$$$$$$$$$$$$$$",
"#o++$oooooo$$$$OO$$$$$$$$$$$$$$$",
"#    OOOOOOOOOOOOOOOOOOOOOOOOOOO",
"#+++++oO$$$$$$$$$$$$$$$OO$$$$$$$",
"#++++++O$$$$$$$$$$$$$$$OO$$$$$$$",
"#++++++O$$$$$$$$$$$$$$$OO$$$$$$$",
"#++++++O$$$$$$$$$$$$$$$OO$$$$$$$",
"#++++++O$$$$$$$$$$$$$$$OO$$$$$$$",
"#++++++O$$$$$$$$$$$$$$$OO$$$$$$$",
"#o+++++O$$$$$$$$$$$$$$$OO$$$$$$$",
"#    OOOOOOOOOOOOOOOOOOOO$$$$$$$",
"#++o$oooooo$$$$OO$$$$$$$$$$$$$$$",
"#+++$oooooo$$$$OO$$$$$$$$$$$$$$$",
"#+++$oooooo$$$$OO$$$$$$$$$$$$$$$",
"#+++$oooooo$$$$OO$$$$$$$$$$$$$$$",
"#+++$oooooo$$$$OO$$$$$$$$$$$$$$$",
"#+++$oooooo$$$$OO$$$$$$$$$$$$$$$",
"#o++$oooooo$$$$OO$$$$$$$$$$$$$$$"
};
