/* XPM */
static char *_e1b7fdc2cb64ca6b09eac20121cb77aGc3ZvAFc9eOFfI8Q[] = {
/* columns rows colors chars-per-pixel */
"32 32 166 2 ",
"   c None",
".  c #030202",
"X  c #0B0303",
"o  c #030B0C",
"O  c #0B0B0C",
"+  c #070709",
"@  c #130405",
"#  c #190505",
"$  c #1E0806",
"%  c #1C050A",
"&  c #140C0C",
"*  c #051214",
"=  c #091315",
"-  c #02171A",
";  c #0D181A",
":  c #111111",
">  c #1A1413",
",  c #15191A",
"<  c #1E1E1E",
"1  c #200907",
"2  c #24060E",
"3  c #230908",
"4  c #320D0B",
"5  c #3B0F0D",
"6  c #3D100D",
"7  c #3D0F10",
"8  c #231312",
"9  c #271F1E",
"0  c #3C1B19",
"q  c #3E1010",
"w  c #032A2F",
"e  c #162024",
"r  c #182124",
"t  c #1E272B",
"y  c #022D33",
"u  c #02363D",
"i  c #193336",
"p  c #262525",
"a  c #2D2D2D",
"s  c #312B2B",
"d  c #253036",
"f  c #29353B",
"g  c #3C3737",
"h  c #43120F",
"j  c #4E0C1F",
"k  c #461A16",
"l  c #4A1A16",
"z  c #531712",
"x  c #5C1A14",
"c  c #571813",
"v  c #601A15",
"b  c #671815",
"n  c #731D19",
"m  c #7A1919",
"M  c #64201B",
"N  c #7C221B",
"B  c #742019",
"V  c #6B0E2E",
"C  c #670E2B",
"Z  c #433C3B",
"A  c #2F3D44",
"S  c #02454E",
"D  c #014F59",
"F  c #144A51",
"G  c #08535D",
"H  c #37464E",
"J  c #015460",
"K  c #01626E",
"L  c #006672",
"P  c #444343",
"I  c #494949",
"U  c #5C5A5A",
"Y  c #5C5757",
"T  c #5D6062",
"R  c #43737A",
"E  c #646262",
"W  c #6C6C6C",
"Q  c #666A6C",
"!  c #767575",
"~  c #951E1E",
"^  c #81241C",
"/  c #8C261F",
"(  c #88123A",
")  c #9D2020",
"_  c #932820",
"`  c #982A21",
"'  c #A42D24",
"]  c #A92723",
"[  c #AD3026",
"{  c #B23127",
"}  c #BA3329",
"|  c #B63228",
" . c #BA2C27",
".. c #C2362A",
"X. c #CD382D",
"o. c #C9372C",
"O. c #D43A2E",
"+. c #D93B2F",
"@. c #D9352E",
"#. c #C82B2A",
"$. c #E43E32",
"%. c #EB3E33",
"&. c #EC4134",
"*. c #F34335",
"=. c #981441",
"-. c #B3174C",
";. c #C21953",
":. c #C91A56",
">. c #E71E63",
",. c #E81E63",
"<. c #007685",
"1. c #007B8B",
"2. c #008B9D",
"3. c #3A838D",
"4. c #0096AA",
"5. c #0097AB",
"6. c #009CB0",
"7. c #00A6BC",
"8. c #06B6CD",
"9. c #02BBD3",
"0. c #0DBCD2",
"q. c #13BED4",
"w. c #18C0D6",
"e. c #17C0D6",
"r. c #3CCBDD",
"t. c #30C8DB",
"y. c #28C5D9",
"u. c #54CFDF",
"i. c #4BCFE0",
"p. c #5DD4E3",
"a. c #6AD7E6",
"s. c #74DAE7",
"d. c #898989",
"f. c #848585",
"g. c #898F92",
"h. c gray57",
"j. c #969DA0",
"k. c gray64",
"l. c #A9A9A9",
"z. c #A7AEB0",
"x. c #B2B2B2",
"c. c gray",
"v. c #B6BDC1",
"b. c #85DEEA",
"n. c #88DFEA",
"m. c #9FDDE5",
"M. c #9DE5EE",
"N. c #A3E6EF",
"B. c #AEE9F1",
"V. c #BAEDF3",
"C. c #CBCBCB",
"Z. c #C6C6C6",
"A. c #D3D3D3",
"S. c #DBDBDC",
"D. c #C0E0E6",
"F. c #C8ECF0",
"G. c #D5F4F8",
"H. c #DDF6F9",
"J. c #E4E4E4",
"K. c #E9E9E9",
"L. c #E4F8FA",
"P. c #ECFAFC",
"I. c #E8F5F7",
"U. c gray96",
"Y. c #F3FBFC",
"T. c #FEFFFF",
/* pixels */
"                            O . . O                             ",
"                        + P x.S.S.x.g +                         ",
"                      + h.T.Y.V.V.Y.T.h.+                       ",
"                    O W T.H.w.6.6.q.B.T.W O                     ",
"                    . K.T.U.i o o y 8.G.K..                     ",
"      : . O . + +   a T.T.d.r H H ; L a.T.a   : O O O . O       ",
"    + ! J.Y.T.C.P . P T.b.F t H H t S i.T.P . I A.T.Y.S.T .     ",
"  O l.H.r.9.9.p.P.E p T.s.<.* A A * <.s.T.p W Y.p.9.9.r.F.g..   ",
"+ U T.U.G o * <.t.U.O S.P.e.G + + J q.P.S.O U.T.3.* o D 0.D.I + ",
": c.T.f., A f o 4.M.W P T.G.r.9.9.r.G.T.P W T.Z.O f A = K u.j.O ",
"+ J.B.i d H H e K a.k.. U U.T.P.P.T.U.Y . k.V.R r H H d w y.v.. ",
"O A.r.S e H H = 1.b.h.k k > ! l.l.! > k k h.b.1.= H H e S r.z.+ ",
": d.B.7.- * o u q.L.Z _ *.{ M 0 0 M | *./ P L.0.u o * - 7.m.Q O ",
"  O J.n.8.2.4.w.V.x.& $.*.*.*.*.*.*.*.*.$.& x.V.w.4.2.8.b.v.+   ",
"  + < Z.L.N.B.Y.k.& { *.*.*.*.*.*.*.*.*.*.[ O k.P.B.N.H.z., +   ",
"    X & g E E 9 8 } *.*.*.*.*.*.*.*.*.*.*.*.| 8 p E E s O .     ",
"  @ _ &.' N ^ { &.4 +.*.*.*.*.*.*.*.*.*.*.+.4 &.{ ^ N ' +.m X   ",
"  $ *.*.*.*.*.*.*.c h _ _ _ _ _ _ _ _ _ _ h c *.*.*.*.*.*.#.#   ",
"@ N *.*.*.*.*.*.*.&.N z 4 % j 2 2 j % 4 z N &.*.*.*.*.*.*.@.b X ",
"@ } *.*.*.*.*.*.*.*.*.*.n C ,.V V ,.C n *.*.*.*.*.*.*.*.*.$.~ X ",
". +.*.*.*.*.*.*.*.*.*.*.7 =.,.V V ,.=.q *.*.*.*.*.*.*.*.*.%.] . ",
"X o.^ $.*.*.*.*.*.*.*.*.X :.,.V V ,.:.X *.*.*.*.*.*.*.*.$.N ] . ",
"# ` 1 ..*.*.*.*.*.*.*.X.@ >.>.( ( ,.>.@ X.*.*.*.*.*.*.*...$ m X ",
"  3 $ ..*.*.*.*.*.*.*.} % ,.>.,.,.,.,.% } *.*.*.*.*.&.$.) # #   ",
"  @ . ..*.*.B _ *.*.*.$.X ;.,.,.,.,.;.X $.*.*.*._ n *.$.) . X   ",
"    X ..*.*.v ^ *.*.*.*.N 2 -.,.,.-.2 N *.*.*.*.^ v *.$.) .     ",
"    X ..*.*.v ^ *.*.*.*.*./ # @ @ # / *.*.*.*.*.^ v *.$.) X     ",
"    X ..*.*.v 1 n ' X.&.*.*.*.X.X.*.*.*.&.X.' b # v *.$.) X     ",
"    X ..*.*.x . X X X . # 3 4 6 5 4 3 # . X X . . v *.$.) X     ",
"    X } *.*.z     x *.$.X.} h . . h } X.$.*.x     z *.$.~ X     ",
"    X 5 O.[ X     1 O.$.$.O.$     1 O.$.$.O.$     X [  .4 X     ",
"      X . X       X . . . . X     X . . . . X       # X #       "
};
