/* XPM */
static char *result[] = {
/* columns rows colors chars-per-pixel */
"32 32 31 1 ",
"  c #4D0000",
". c #570000",
"X c #580000",
"o c #5E0000",
"O c #6B0000",
"+ c #880000",
"@ c #8C0808",
"# c #9E0000",
"$ c #C20000",
"% c #C30000",
"& c #F10000",
"* c #F20000",
"= c #FA0000",
"- c #FA0808",
"; c #FA0B0B",
": c #FB0C0C",
"> c #0A32FA",
", c #A9A9A9",
"< c #AAAAAA",
"1 c #D7A9A9",
"2 c #FDA9A9",
"3 c #FDAAAA",
"4 c #FEAAAA",
"5 c #8FA2FC",
"6 c #90A2FC",
"7 c #90A2FD",
"8 c #F4F5FE",
"9 c #F4F6FF",
"0 c #FAFBFF",
"q c white",
"w c None",
/* pixels */
"wwwwwwwwwwwwwwwwwwwwwwwwwwwwwwww",
"wwwwwwwwwwww========wwwwwwwwwwww",
"wwwwwwwwwwww========wwwwwwwwwwww",
"wwwwwwww>>>>========>>>>wwwwwwww",
"wwwwwwww>>>>========>>>>wwwwwwww",
"wwwww,q8>>>>qq====qq>>>>qqwwwwww",
"wwwww<q9>>>>qq====qq>>>>qqwwwwww",
"www++1q07577qq====qq7677qq@+.www",
"www==3qqqqqqqq====qqqqqqqq-=#www",
"www==2qqqqqqqq====qqqqqqqq-=#www",
"www==4qqqqqqqq====qqqqqqqq-=#www",
"www==2qqqqqqqq====qqqqqqqq-=#www",
"www====:qqqq========qqqq====#www",
"www====;qqqq========qqqq====#www",
"w==============================w",
"w==============================w",
"w==============================w",
"w==============================w",
"w==============================w",
"w==============================w",
"w==============================w",
"w==============================w",
"w==============================w",
"w==============================w",
"w==============================w",
"w==============================w",
"w====Xww======wwww======ww&====w",
"w====Xww======wwww======ww*====w",
"w==wwwwwww====wwww====wwwwwwO==w",
"w==wwwwwww====wwww====wwwwwwo==w",
"w%$wwwwwww$%$%wwww$%$%wwwwww %$w",
"wwwwwwwwwwwwwwwwwwwwwwwwwwwwwwww"
};
