/* XPM */
static char *result[] = {
/* columns rows colors chars-per-pixel */
"32 32 23 1 ",
"  c #630000",
". c #990000",
"X c #9A0000",
"o c #BB0000",
"O c #BC0000",
"+ c #E10000",
"@ c #E20000",
"# c #F40000",
"$ c #FA0000",
"% c #0A32FA",
"& c #FD9595",
"* c #FD9C9C",
"= c #FD9D9D",
"- c #FDBEBE",
"; c #FEBEBE",
": c #FEBFBF",
"> c #FFF3F3",
", c #F7F8FE",
"< c #F7F8FF",
"1 c #F8F9FF",
"2 c #FFFCFC",
"3 c white",
"4 c None",
/* pixels */
"44444444444444444444444444444444",
"444444444444$$$$$$$$444444444444",
"444444444444$$$$$$$$444444444444",
"4444444$$$$$$$$$$$$$$$$$X4444444",
"4444444$$$$$$$$$$$$$$$$$.4444444",
"44444$$$$$$$$$$$$$$$$$$$$$$44444",
"44444$$$$$$$$$$$$$$$$$$$$$$44444",
"444$$3333-$$$$$$$$3333$$$$$$$444",
"444$$3333:$$$$$$$$3333$$$$$$$444",
"444>>33332>>$$$$>>3333>>&$$$$444",
"444333333333$$$$33333333*$$$$444",
"444,<,133333$$$$<,1,3333=$$$$444",
"444%%%%33333$$$$%%%%3333*$$$$444",
"444%%%%33333$$$$%%%%3333=$$$$444",
"4$$%%%%33333$$$$%%%%3333*$$$$$$4",
"4$$%%%%33333$$$$%%%%3333=$$$$$$4",
"4$$$$3333:$$$$$$$$3333$$$$$$$$$4",
"4$$$$3333;$$$$$$$$3333$$$$$$$$$4",
"4$$$$$$$$$$$$$$$$$$$$$$$$$$$$$$4",
"4$$$$$$$$$$$$$$$$$$$$$$$$$$$$$$4",
"4$$$$$$$$$$$$$$$$$$$$$$$$$$$$$$4",
"4$$$$$$$$$$$$$$$$$$$$$$$$$$$$$$4",
"4$$$$$$$$$$$$$$$$$$$$$$$$$$$$$$4",
"4$$$$$$$$$$$$$$$$$$$$$$$$$$$$$$4",
"4$$$$$$$$$$$$$$$$$$$$$$$$$$$$$$4",
"4$$$$$$$$$$$$$$$$$$$$$$$$$$$$$$4",
"4$$$$$$$$#+@$$$$$$$$@@$$$$$$$$$4",
"4$$$$$$$$o44$$$$$$$$44$$$$$$$$$4",
"4$$$$$$$$O44$$$$$$$$44$$$$$$$$$4",
"444$$$$4444444$$$$444444 $$$$444",
"444$$$$4444444$$$$444444 $$$$444",
"44444444444444444444444444444444"
};
