/* XPM */
static char *result[] = {
/* columns rows colors chars-per-pixel */
"32 32 23 1 ",
"  c #500000",
". c #8C0000",
"X c #8D0000",
"o c #8E0000",
"O c #9E0000",
"+ c #A90000",
"@ c #B80000",
"# c #B90000",
"$ c #D10000",
"% c #D20000",
"& c #F00000",
"* c #FA0000",
"= c #FA0202",
"- c #FA0E0E",
"; c #FB0E0E",
": c #0A32FA",
"> c #A4B3FD",
", c #A5B3FD",
"< c #A5B4FD",
"1 c #FED6D6",
"2 c #FFD6D6",
"3 c white",
"4 c None",
/* pixels */
"44444444444444444444444444444444",
"444444444444********444444444444",
"444444444444********444444444444",
"44444444****************O4444444",
"44444444****************O4444444",
"44444@*********************44444",
"44444#*********************44444",
"444%%&****1121********11111%%444",
"444*******3333********33333**444",
"444*****--3333;-****--33333--444",
"444****=33333333****333333333444",
"444****=33333333****333333333444",
"444****=3333::::****3333>::::444",
"444****=3333::::****3333,::::444",
"4******=3333::::****3333,::::**4",
"4******=3333::::****3333<::::**4",
"4*********3333********33333****4",
"4*********3333********33333****4",
"4******************************4",
"4******************************4",
"4******************************4",
"4******************************4",
"4******************************4",
"4******************************4",
"4******************************4",
"4******************************4",
"4****+.o******.X.X******$X.****4",
"4**** 44******4444******O44****4",
"4**** 44******4444******O44****4",
"4**4444444****4444****4444444**4",
"4**4444444****4444****4444444**4",
"44444444444444444444444444444444"
};
