/* XPM */
static char *result[] = {
/* columns rows colors chars-per-pixel */
"32 32 28 1 ",
"  c #4A0000",
". c #590000",
"X c #710000",
"o c #A70000",
"O c #A80000",
"+ c #C50000",
"@ c #E80000",
"# c #E90000",
"$ c #F20000",
"% c #F90000",
"& c #FA0000",
"* c #FA0606",
"= c #FA0A0A",
"- c #FA1E1E",
"; c #FB1E1E",
": c #C70B35",
"> c #FB3636",
", c #AB1052",
"< c #AB1152",
"1 c #FC5454",
"2 c #0A32FA",
"3 c #ADBBFD",
"4 c #AEBBFD",
"5 c #CBD3FE",
"6 c #CBD4FE",
"7 c #FFF7F7",
"8 c white",
"9 c None",
/* pixels */
"99999999999999999999999999999999",
"999999999999&&&&&&&&999999999999",
"999999999999&&&&&&&&999999999999",
"9999999 &&&&&&&&&&&&&&&&.9999999",
"9999999 &&&&&&&&&&&&&&&&.9999999",
"99999$&&&&&&&&&&&&&&&&&&&&&99999",
"99999$&&&&&&&&&&&&&&&&&&&&&99999",
"999@#%&&&&&&&&&&&&&&&&&&&&&@#999",
"999&&&&&&&&&&&&&&&&&&&&&&&&&&999",
"999&&&&*;---&&&&&&&&;---=&&&&999",
"999&&&&>8888&&&&&&&&88881&&&&999",
"999&&&&>8888&&&&&&&&88881&&&&999",
"999&&788888888&&&&888888888&&999",
"999&&788888888&&&&888888888&&999",
"9&&&&788888888&&&&888888888&&&&9",
"9&&&&788888888&&&&888888888&&&&9",
"9&&&&786222288&&&&882222388&&&&9",
"9&&&&785222288&&&&882222488&&&&9",
"9&&&&&&:2222&&&&&&&&2222,&&&&&&9",
"9&&&&&&:2222&&&&&&&&2222<&&&&&&9",
"9&&&&&&&&&&&&&&&&&&&&&&&&&&&&&&9",
"9&&&&&&&&&&&&&&&&&&&&&&&&&&&&&&9",
"9&&&&&&&&&&&&&&&&&&&&&&&&&&&&&&9",
"9&&&&&&&&&&&&&&&&&&&&&&&&&&&&&&9",
"9&&&&&&&&&&&&&&&&&&&&&&&&&&&&&&9",
"9&&&&&&&&&&&&&&&&&&&&&&&&&&&&&&9",
"9&&&&&&&&&XX&&&&&&&&XX&&&&&&&&&9",
"9&&&&&&&&&99&&&&&&&&99&&&&&&&&&9",
"9&&&&&&&&&99&&&&&&&&99&&&&&&&&&9",
"999&&&&+999999&&&&999999O&&&&999",
"999&&&&+999999&&&&999999o&&&&999",
"99999999999999999999999999999999"
};
