/* XPM */
static char *result[] = {
/* columns rows colors chars-per-pixel */
"32 32 222 2 ",
"   c black",
".  c #0A0000",
"X  c #0E0000",
"o  c #0F0000",
"O  c #0E0200",
"+  c #100000",
"@  c #120000",
"#  c #170000",
"$  c #180000",
"%  c #190000",
"&  c #1B0000",
"*  c #1D0000",
"=  c #0F1202",
"-  c #121200",
";  c #111211",
":  c #260000",
">  c #270000",
",  c #290000",
"<  c #2B0000",
"1  c #360000",
"2  c #390000",
"3  c #3A0000",
"4  c #3B0000",
"5  c #3C0000",
"6  c #3E0000",
"7  c #231413",
"8  c #363B00",
"9  c #410000",
"0  c #420000",
"q  c #440000",
"w  c #4E0000",
"e  c #540000",
"r  c #570000",
"t  c #5B0000",
"y  c #401400",
"u  c #690000",
"i  c #6D0E06",
"p  c #780000",
"a  c #7B0000",
"s  c #780200",
"d  c #7C0000",
"f  c #7D0000",
"g  c #7E0000",
"h  c #7F0000",
"j  c #5B2800",
"k  c #582C00",
"l  c #483C00",
"z  c #490836",
"x  c #733234",
"c  c #3F4000",
"v  c #3B4400",
"b  c #4C4400",
"n  c #6F4400",
"m  c #820000",
"M  c #840000",
"N  c #850000",
"B  c #870000",
"V  c #880000",
"C  c #890000",
"Z  c #8C0000",
"A  c #8E0000",
"S  c #8F0000",
"D  c #800C00",
"F  c #810C00",
"G  c #930000",
"H  c #940000",
"J  c #950000",
"K  c #960000",
"L  c #970000",
"P  c #960504",
"I  c #9B0000",
"U  c #9B0504",
"Y  c #8C1200",
"T  c #8E1415",
"R  c #A20000",
"E  c #A30000",
"W  c #A40000",
"Q  c #A80000",
"!  c #AB0000",
"~  c #AE0000",
"^  c #AF0000",
"/  c #AB0500",
"(  c #AD0600",
")  c #B00000",
"_  c #B20000",
"`  c #B30000",
"'  c #B40000",
"]  c #B50000",
"[  c #B80000",
"{  c #BA0000",
"}  c #BB0000",
"|  c #BB0202",
" . c #BE0000",
".. c #BF0000",
"X. c #BE0600",
"o. c #B01202",
"O. c #BC1200",
"+. c #B11800",
"@. c #A50C18",
"#. c #BA0410",
"$. c #902800",
"%. c #932800",
"&. c #973C00",
"*. c #993C00",
"=. c #A52A00",
"-. c #AD2C00",
";. c #B43D00",
":. c #BE3C00",
">. c #9F3426",
",. c #932F34",
"<. c #A03124",
"1. c #C00000",
"2. c #C10000",
"3. c #C00101",
"4. c #C20000",
"5. c #C30000",
"6. c #C40000",
"7. c #C50000",
"8. c #C60000",
"9. c #C70000",
"0. c #C10600",
"q. c #C80000",
"w. c #C90000",
"e. c #CB0000",
"r. c #CD0000",
"t. c #C30A00",
"y. c #C30A07",
"u. c #C20B07",
"i. c #C30D0A",
"p. c #C20E0F",
"a. c #D10000",
"s. c #D20000",
"d. c #D30000",
"f. c #D50000",
"g. c #D70000",
"h. c #DB0000",
"j. c #DC0000",
"k. c #DF0000",
"l. c #C71000",
"z. c #C3100B",
"x. c #C31415",
"c. c #C41618",
"v. c #E20000",
"b. c #E70000",
"n. c #E90000",
"m. c #EA0000",
"M. c #EB0000",
"N. c #EC0000",
"B. c #F00000",
"V. c #F20000",
"C. c #F30000",
"Z. c #F40000",
"A. c #F90000",
"S. c #FA0000",
"D. c #FC0000",
"F. c #FD0000",
"G. c #FE0000",
"H. c red",
"J. c #FF1000",
"K. c #C52D00",
"L. c #C03C00",
"P. c #C53024",
"I. c #CB3F2F",
"U. c #934200",
"Y. c #984307",
"T. c #994418",
"R. c #AB4A00",
"E. c #BB4400",
"W. c #817700",
"Q. c #827600",
"!. c #9B4834",
"~. c #A74432",
"^. c #C04300",
"/. c #DB6900",
"(. c #9F4B45",
"). c #9A484A",
"_. c #D57E5D",
"`. c #838300",
"'. c #BA8300",
"]. c #9FA100",
"[. c #B0B000",
"{. c #B0B100",
"}. c #BBB000",
"|. c #BFB000",
" X c #B2B413",
".X c #C18300",
"XX c #C48300",
"oX c #E59600",
"OX c #F99600",
"+X c #FF9B00",
"@X c #FF9C00",
"#X c #C0B700",
"$X c #C1B211",
"%X c #E9A700",
"&X c #F1A900",
"*X c #C0C100",
"=X c #C0C300",
"-X c #C2C500",
";X c #D4D600",
":X c #F4E900",
">X c #F7EC00",
",X c #FFE800",
"<X c #FDF600",
"1X c #FAFA00",
"2X c yellow",
"3X c #D78C67",
"4X c #D68E68",
"5X c #D7906A",
"6X c #D8976F",
"7X c #C4C550",
"8X c #CCCD50",
"9X c #722399",
"0X c #586397",
"qX c #7D72ED",
"wX c #95968E",
"eX c #D98A94",
"rX c #D6D88E",
"tX c #C5C6B7",
"yX c #C7C6B7",
"uX c #DDC0CC",
"iX c #E8DAE9",
"pX c None",
/* pixels */
"pXpXpXpXpXpXpXpXpXpXpXpXpXpXpXpXpXpXpXpXpXpXpXpXpXpXpXpXpXpXpXpX",
"pXpXpXpXpXpXpXpXpXpXpXpXpXpXpXpXpXpXpXpXpXpXpXpXpXpXpXpXpXpXpXpX",
"pXpXpXpXpXpXpXpXpXpXpXpXpXh h d ! H.H.! d h pXpXpXpXpXpXpXpXpXpX",
"pXpXpXpXpXpXpXpXpXpXpXpXR d.s.a.v.H.H.v.s.r.B a pXpXpXpXpXpXpXpX",
"pXpXpXpXpXpXpXpXpXpXpXR w.H.H.H.H.H.H.H.H.S.` ! W pXpXpXpXpXpXpX",
"pXpXpXpXpXpXpXpXpXpXC g.H.H.H.H.H.H.H.H.H.H.H.H.d.h pXpXpXpXpXpX",
"pXpXpXpXpXpXpXpXpX% k.D.H.H.H.H.H.H.H.H.H.H.H.H.s.g pXpXpXpXpXpX",
"pXpXpXpXpXpXpXpXpX+ 4.C.H.H.H.H.H.H.H.H.H.H.H.H.B.7.* pXpXpXpXpX",
"pXpXpXpXpXpXpXpX> w ` h.m.M.F.H.H.H.H.H.H.H.H.H.H.n.# pXpXpXpXpX",
"pXpXpXpXpXpXpX  9 5.1.1...7.Z.A.A.S.G.J.J.H.H.H.H.b.$ pXpXpXpXpX",
"pXpXpXpXpXpXpX  9 4.1.1.1.2.7.8.8.e.S.+X@XH.H.H.H.b.$ pXpXpXpXpX",
"pXpXpXpXpXpXpX  0 8.1.1.2.2.1.1.1.l.OX,X&Xf.f.V.H.N.$ pXpXpXpXpX",
"pXpXpXpXpXpXpXpX1 M { 2.[ !  .2.[ +.>X2X%X . .j.d.I # pXpXpXpXpX",
"pXpXpXpXpXpXpXpXpX& ^ #.@.T | 4./ $.:X<XoX..1.6.a   pXpXpXpXpXpX",
"pXpXpXpXpXpXpXpXpXa { 9XqXuXx.1.:.#X1X/.t.1.1.6.f   pXpXpXpXpXpX",
"pXpXpXpXpXpXpXpXpXN } z 0XiXc.1.^.-X;XR.E 1.1.q.h   pXpXpXpXpXpX",
"pXpXpXpXpXpXpXpXpXU P.i x eXp.1.^.=X*XU.H 4.4.K t   pXpXpXpXpXpX",
"pXpXpXpXpXpXpXpXpXz.4XI.y.u.3.1.L.|.}.&.G ~ ) 6   pXpXpXpXpXpXpX",
"pXpXpXpXpXpXpXpXpXpX6X5X3X_.i.1.0.O.Y ( m + @ pXpXpXpXpXpXpXpXpX",
"pXpXpXpXpXpXpXpXpXpXpX~.>.<.P ' J 5 < 4 2 pXpXpXpXpXpXpXpXpXpXpX",
"pXpXpXpXpXpXpXpXpXpXpXpXu r A ] Z : , .   pXpXpXpXpXpXpXpXpXpXpX",
"pXpXpXpXpXpXpXpXpXpXpXpXpX7 o.X.Q B V 3 X pXpXpXpXpXpXpXpXpXpXpX",
"pXpXpXpXpXpXpXpXpXpXpXf ).yX$X*.L { { _ ~ pXpXpXpXpXpXpXpXpXpXpX",
"pXpXpXpXpXpXpXpXpXpXpXf T.8XrX!.%..XXXK.S   pXpXpXpXpXpXpXpXpXpX",
"pXpXpXpXpXpXpXpXpXpXpXf T.7XwX,.=.'.`.-.f   pXpXpXpXpXpXpXpXpXpX",
"pXpXpXpXpXpXpXpXpXpXpXf (.tX; d 8.~ o D F   pXpXpXpXpXpXpXpXpXpX",
"pXpXpXpXpXpXpXpXpXpXpXg Y. X= f 9.^ o W.Q.  pXpXpXpXpXpXpXpXpXpX",
"pXpXpXpXpXpXpXpXpXpXpXpXj l s e 5 q p k 8 pXpXpXpXpXpXpXpXpXpXpX",
"pXpXpXpXpXpXpXpXpXpXpXpXpXO ;.n v b E.y   pXpXpXpXpXpXpXpXpXpXpX",
"pXpXpXpXpXpXpXpXpXpXpXpXpX- ].{.[.[.{.c   pXpXpXpXpXpXpXpXpXpXpX",
"pXpXpXpXpXpXpXpXpXpXpXpXpXpX- - - - - pXpXpXpXpXpXpXpXpXpXpXpXpX",
"pXpXpXpXpXpXpXpXpXpXpXpXpXpXpXpXpXpXpXpXpXpXpXpXpXpXpXpXpXpXpXpX"
};
