/* XPM */
static char *result[] = {
/* columns rows colors chars-per-pixel */
"32 32 117 2 ",
"   c black",
".  c #060000",
"X  c #060600",
"o  c #080200",
"O  c #0F0000",
"+  c #110000",
"@  c #120200",
"#  c #160000",
"$  c #180000",
"%  c #1A0000",
"&  c #101000",
"*  c #111100",
"=  c #121200",
"-  c #141B00",
";  c #330000",
":  c #370000",
">  c #211000",
",  c #333A00",
"<  c #383D00",
"1  c #400000",
"2  c #4B0000",
"3  c #4F0000",
"4  c #4D0B00",
"5  c #510000",
"6  c #500200",
"7  c #570000",
"8  c #590000",
"9  c #5A0000",
"0  c #620000",
"q  c #670000",
"w  c #6A0000",
"e  c #790000",
"r  c #7A0000",
"t  c #7B0000",
"y  c #7F0000",
"u  c #433E00",
"i  c #6E2C00",
"p  c #384200",
"a  c #747600",
"s  c #800000",
"d  c #820000",
"f  c #830000",
"g  c #850000",
"h  c #860000",
"j  c #8B0000",
"k  c #950000",
"l  c #960000",
"z  c #9B0000",
"x  c #941700",
"c  c #A40000",
"v  c #A60000",
"b  c #A70000",
"n  c #AA0000",
"m  c #AC0000",
"M  c #AD0000",
"N  c #B30000",
"B  c #B00200",
"V  c #B70000",
"C  c #BB0000",
"Z  c #BC0000",
"A  c #BE0000",
"S  c #BF0000",
"D  c #B00F00",
"F  c #BA0800",
"G  c #BE0F00",
"H  c #B41700",
"J  c #932700",
"K  c #8A3E00",
"L  c #AC2700",
"P  c #C00000",
"I  c #C10000",
"U  c #C20000",
"Y  c #C30000",
"T  c #C40000",
"R  c #C50000",
"E  c #C60000",
"W  c #C00E00",
"Q  c #D50000",
"!  c #D60000",
"~  c #DA0000",
"^  c #DA0A00",
"/  c #C01200",
"(  c #E70000",
")  c #E90000",
"_  c #EA0000",
"`  c #F20000",
"'  c #F40000",
"]  c red",
"[  c #964300",
"{  c #815A00",
"}  c #847600",
"|  c #B47100",
" . c #BF7D00",
".. c #C04200",
"X. c #C54200",
"o. c #C44400",
"O. c #C14A00",
"+. c #C24A00",
"@. c #DA6900",
"#. c #C27900",
"$. c #C57D00",
"%. c #A1A100",
"&. c #B0A100",
"*. c #B3B400",
"=. c #B4B800",
"-. c #BFBF00",
";. c #D68C00",
":. c #FC9700",
">. c #C0B000",
",. c #C0B300",
"<. c #BFC400",
"1. c #C0C000",
"2. c #D6D600",
"3. c #D6DC00",
"4. c #FCF500",
"5. c yellow",
"6. c None",
/* pixels */
"6.6.6.6.6.6.6.6.6.6.6.6.6.6.6.6.6.6.6.6.6.6.6.6.6.6.6.6.6.6.6.6.",
"6.6.6.6.6.6.6.6.6.6.6.6.6.6.% $ $ % 6.6.6.6.6.6.6.6.6.6.6.6.6.6.",
"6.6.6.6.6.6.6.6.6.6.    7 ] ) ( ( ) ] 7     6.6.6.6.6.6.6.6.6.6.",
"6.6.6.6.6.6.6.6.6.O z c R ] ] ] ] ] ] R c z O 6.6.6.6.6.6.6.6.6.",
"6.6.6.6.6.6.6.6.; q ' ] ] ] ] ] ] ] ] ] ] ' q ; 6.6.6.6.6.6.6.6.",
"6.6.6.6.6.6.6.  7 ] ] ] ] ] ] ] ] ] ] ] ] ] ] 7   6.6.6.6.6.6.6.",
"6.6.6.6.6.6.6.  7 ] ] ] ] ] ] ] ] ] ] ] ] ] ] 7   6.6.6.6.6.6.6.",
"6.6.6.6.6.6.5.p 5 ] ] ] ] ] ] ] ] ] ] ] ] ] ] 5 p 5.6.6.6.6.6.6.",
"6.6.6.6.6.6.5.{ y ] ] ] ] ] ] ] ] ] ] ] ] ] ] y { 5.6.6.6.6.6.6.",
"6.6.6.6.6.6.5.@.^ ] ] ] ] ] ] ] ] ] ] ] ] ] ] ^ @.5.6.6.6.6.6.6.",
"6.6.6.6.6.6.5.4.:.] ] ] ] ] ] ] ] ] ] ] ] ] ] :.4.5.6.6.6.6.6.6.",
"6.6.6.6.6.6.2.3.;.! Q ` ] ] ] ] ] ] ] ] ` Q ! ;.3.2.6.6.6.6.6.6.",
"6.6.6.6.6.6.-.<. .S A ~ _ ) ) ) ) ) ) _ ~ A S  .<.-.6.6.6.6.6.6.",
"6.6.6.6.6.6.1.=.| P P P S S S S S S S S P P P | =.1.6.6.6.6.6.6.",
"6.6.6.6.6.6.6.- 4 U P P P P P P P P P P P P U 4 - 6.6.6.6.6.6.6.",
"6.6.6.6.6.6.6.  1 Y P P P P P P P P P P P P Y 1   6.6.6.6.6.6.6.",
"6.6.6.6.6.6.6.6.2 M A P P P P P P P P P P A M 2 6.6.6.6.6.6.6.6.",
"6.6.6.6.6.6.6.6.6.r N A P P P P P P P P A N r 6.6.6.6.6.6.6.6.6.",
"6.6.6.6.6.6.6.6.6.# e M Y I I I I I I Y M e # 6.6.6.6.6.6.6.6.6.",
"6.6.6.6.6.6.6.6.; d v 0 9 l k k k k l 9 0 v d ; 6.6.6.6.6.6.6.6.",
"6.6.6.6.6.6.6., i E T w 8 l k k k k l 8 w T E i , 6.6.6.6.6.6.6.",
"6.6.6.6.6.6.+ } $.G B C U I I I I I I U C B G $.} + 6.6.6.6.6.6.",
"6.6.6.6.6.g n F O.&.> f T P P P P P P T f > &.O.F n g 6.6.6.6.6.",
"6.6.6.6.6.h Z Y H K o t R P P P P P P R t o K H Y Z h 6.6.6.6.6.",
"6.6.6.6.6.h b m j 6 u x Y P P P P P P Y x u 6 j m b h 6.6.6.6.6.",
"6.6.6.6.6.6.y f 3 & &.+.W / / / / / / W +.&.& 3 f y 6.6.6.6.6.6.",
"6.6.6.6.6.6.6.6.6.@ D #.,.>.>.>.>.>.>.,.#.D @ 6.6.6.6.6.6.6.6.6.",
"6.6.6.6.6.6.6.6.6.. : J X.o.........o.X.J : . 6.6.6.6.6.6.6.6.6.",
"6.6.6.6.6.6.6.6.6.X < [ L s V I I V s L [ < X 6.6.6.6.6.6.6.6.6.",
"6.6.6.6.6.6.6.6.6.= %.*.a   6.6.6.6.  a *.%.= 6.6.6.6.6.6.6.6.6.",
"6.6.6.6.6.6.6.6.6.6.= = * 6.6.6.6.6.6.* = = 6.6.6.6.6.6.6.6.6.6.",
"6.6.6.6.6.6.6.6.6.6.6.6.6.6.6.6.6.6.6.6.6.6.6.6.6.6.6.6.6.6.6.6."
};
