/* XPM */
static char *result[] = {
/* columns rows colors chars-per-pixel */
"32 32 214 2 ",
"   c black",
".  c #040000",
"X  c #0E0000",
"o  c #0F0000",
"O  c #0E0200",
"+  c #100000",
"@  c #120000",
"#  c #1D0000",
"$  c #0F1000",
"%  c #121200",
"&  c #121414",
"*  c #250000",
"=  c #280000",
"-  c #2B0000",
";  c #340000",
":  c #350000",
">  c #370000",
",  c #3C0000",
"<  c #3F0000",
"1  c #272900",
"2  c #400000",
"3  c #410000",
"4  c #420000",
"5  c #440000",
"6  c #450000",
"7  c #420600",
"8  c #480000",
"9  c #4D0000",
"0  c #4C0100",
"q  c #540000",
"w  c #550000",
"e  c #580000",
"r  c #5A0000",
"t  c #5D0000",
"y  c #411400",
"u  c #4E140E",
"i  c #670000",
"p  c #6D0000",
"a  c #710000",
"s  c #780000",
"d  c #790000",
"f  c #7A0000",
"g  c #7B0000",
"h  c #780200",
"j  c #7C0000",
"k  c #7D0000",
"l  c #7E0000",
"z  c #7F0000",
"x  c #562B00",
"c  c #423C00",
"v  c #4A3A00",
"b  c #483D00",
"n  c #3F4000",
"m  c #3B4400",
"M  c #4C4400",
"N  c #6F4400",
"B  c #1F1250",
"V  c #840000",
"C  c #870000",
"Z  c #8B0000",
"A  c #8E0000",
"S  c #950000",
"D  c #960000",
"F  c #970000",
"G  c #970600",
"H  c #990000",
"J  c #9A0000",
"K  c #9B0000",
"L  c #9F0000",
"P  c #950C0E",
"I  c #9B0F0F",
"U  c #841200",
"Y  c #8A1000",
"T  c #8B1000",
"R  c #8C1000",
"E  c #86130E",
"W  c #9C1300",
"Q  c #971118",
"!  c #A00000",
"~  c #A60000",
"^  c #A80000",
"/  c #A90000",
"(  c #AA0000",
")  c #AB0000",
"_  c #AE0000",
"`  c #AF0000",
"'  c #B00000",
"]  c #B10000",
"[  c #B00006",
"{  c #B90000",
"}  c #BB0000",
"|  c #B80200",
" . c #BB0200",
".. c #BC0000",
"X. c #BD0000",
"o. c #BE0000",
"O. c #BF0000",
"+. c #BC0B00",
"@. c #AD1200",
"#. c #A8120D",
"$. c #B01000",
"%. c #B60516",
"&. c #9D231A",
"*. c #B43D00",
"=. c #A13628",
"-. c #A03829",
";. c #BC3023",
":. c #C00000",
">. c #C10000",
",. c #C20000",
"<. c #C30000",
"1. c #C10102",
"2. c #C40000",
"3. c #C50000",
"4. c #C60000",
"5. c #C70000",
"6. c #C20700",
"7. c #C80000",
"8. c #C20C00",
"9. c #C30C00",
"0. c #C10805",
"q. c #C30C09",
"w. c #D20000",
"e. c #D30000",
"r. c #D40000",
"t. c #D50000",
"y. c #D70000",
"u. c #DA0000",
"i. c #DC0000",
"p. c #C21000",
"a. c #C61B14",
"s. c #E30000",
"d. c #E50000",
"f. c #E60000",
"g. c #E90000",
"h. c #F00000",
"j. c #F10000",
"k. c #F30000",
"l. c #F50000",
"z. c #F70000",
"x. c #F90000",
"c. c #FA0000",
"v. c #FB0000",
"b. c #FC0000",
"n. c #FD0000",
"m. c #FE0000",
"M. c red",
"N. c #FF0200",
"B. c #FF0800",
"V. c #FF1300",
"C. c #FF1600",
"Z. c #CC2E00",
"A. c #D73900",
"S. c #C93829",
"D. c #BB4400",
"F. c #A95400",
"G. c #B35400",
"H. c #837600",
"J. c #AE6500",
"K. c #BA7000",
"L. c #C75A00",
"P. c #D45000",
"I. c #D55900",
"U. c #E45900",
"Y. c #FF5100",
"T. c #C07200",
"R. c #C47600",
"E. c #C07D00",
"W. c #C07E00",
"Q. c #A5656B",
"!. c #CF5B43",
"~. c #D5666D",
"^. c #80850E",
"/. c #A98500",
"(. c #B1840E",
"). c #B59E00",
"_. c #BA9D00",
"`. c #9FA100",
"'. c #B1A100",
"]. c #B9AE00",
"[. c #B0B000",
"{. c #B0B100",
"}. c #BEB300",
"|. c #B0832D",
" X c #B1842D",
".X c #C38500",
"XX c #FFB000",
"oX c #C0C600",
"OX c #C8CE00",
"+X c #D0C200",
"@X c #D2D000",
"#X c #FFD300",
"$X c #FBEB00",
"%X c #FAEC00",
"&X c #FFFA00",
"*X c yellow",
"=X c #B7BA65",
"-X c #D78C67",
";X c #D78E68",
":X c #D78E69",
">X c #D8976F",
",X c #D0D465",
"<X c #5634D4",
"1X c #908287",
"2X c #8E9287",
"3X c #B0868B",
"4X c #BF9287",
"5X c #D78D93",
"6X c #E0A1AA",
"7X c #C6C387",
"8X c #CFC487",
"9X c #9EA9CC",
"0X c #ACA3EA",
"qX c None",
/* pixels */
"qXqXqXqXqXqXqXqXqXqXqXqXqXqXqXqXqXqXqXqXqXqXqXqXqXqXqXqXqXqXqXqX",
"qXqXqXqXqXqXqXqXqXqXqXqXqXqXqXqXqXqXqXqXqXqXqXqXqXqXqXqXqXqXqXqX",
"qXqXqXqXqXqXqXqXqXqXqXz l Z k.M.w.l z z z qXqXqXqXqXqXqXqXqXqXqX",
"qXqXqXqXqXqXqXqXqXg f ..r.y.v.M.h.w.w.r...f qXqXqXqXqXqXqXqXqXqX",
"qXqXqXqXqXqXqXqXJ ) ( s.M.M.M.M.M.M.M.M.s./ qXqXqXqXqXqXqXqXqXqX",
"qXqXqXqXqXqXqXg ) M.M.M.M.M.M.M.M.M.M.M.M.l.F qXqXqXqXqXqXqXqXqX",
"qXqXqXqXqXqXqXg ( M.M.M.M.M.M.M.M.M.M.M.M.m.z.e   qXqXqXqXqXqXqX",
"qXqXqXqXqXqX  K d.M.M.M.M.M.M.M.M.M.M.M.M.n.i.6   qXqXqXqXqXqXqX",
"qXqXqXqXqXqX  ~ M.M.M.M.M.M.M.M.M.M.M.j.g.d.2.p ; qXqXqXqXqXqXqX",
"qXqXqXqXqXqX  ~ M.M.M.M.B.C.N.v.x.x.c.e.o.O.:.4.l   qXqXqXqXqXqX",
"qXqXqXqXqXqX  ~ M.M.M.M.Y.#XV.u.3.4.4.,.:.:.:.2.k   qXqXqXqXqXqX",
"qXqXqXqXqXqX  ^ M.b.u.t.U.&XXXA.O.:.:.>.>.:.:.7.z   qXqXqXqXqXqX",
"qXqXqXqXqXqX  d :.f.<.X.I.*X*XL.` :.:.] ] >.>.D r   qXqXqXqXqXqX",
"qXqXqXqXqXqXqX  < >.:.O.P.%X*XJ.G >.>.I Q %.1.8 . qXqXqXqXqXqXqX",
"qXqXqXqXqXqXqX  3 ,.:.:.6.Z.$X@XK.:.:.5X0X<X%.A a qXqXqXqXqXqXqX",
"qXqXqXqXqXqXqX  4 4.:.>.] W +XOXE.:.:.6X9XB [ D k qXqXqXqXqXqXqX",
"qXqXqXqXqXqXqXqX> V } <./ U ].oXW.:.:.~.Q.0 ;.#.S qXqXqXqXqXqXqX",
"qXqXqXqXqXqXqXqXqX+ L ' ! Y ).}.T.:.:.0.q.a.;XS.:.qXqXqXqXqXqXqX",
"qXqXqXqXqXqXqXqXqXqX@ X 9 | R @.9.:.:.!.:X-X>XqXqXqXqXqXqXqXqXqX",
"qXqXqXqXqXqXqXqXqXqXqXqX= 3 - : p X.H &.=.-.qXqXqXqXqXqXqXqXqXqX",
"qXqXqXqXqXqXqXqXqXqXqXqXqX  * * t o.H i r k qXqXqXqXqXqXqXqXqXqX",
"qXqXqXqXqXqXqXqXqXqXqXqXqX# j C H  .p.u & qXqXqXqXqXqXqXqXqXqXqX",
"qXqXqXqXqXqXqXqXqXqXqXqXqX` { } ^ T _.7X3Xz qXqXqXqXqXqXqXqXqXqX",
"qXqXqXqXqXqXqXqXqXqXqXqXw 8.R..XF.E 8X,X|.z qXqXqXqXqXqXqXqXqXqX",
"qXqXqXqXqXqXqXqXqXqXqX  2 +.H./.G.P 1X=X Xz qXqXqXqXqXqXqXqXqXqX",
"qXqXqXqXqXqXqXqXqXqXqX  7 $.o j 4._ X 2X4Xz qXqXqXqXqXqXqXqXqXqX",
"qXqXqXqXqXqXqXqXqXqXqX  c '.$ k 5.` o ^.(.z qXqXqXqXqXqXqXqXqXqX",
"qXqXqXqXqXqXqXqXqXqXqXqX1 b h q , 5 s x v qXqXqXqXqXqXqXqXqXqXqX",
"qXqXqXqXqXqXqXqXqXqXqXqXqXO *.N m M D.y   qXqXqXqXqXqXqXqXqXqXqX",
"qXqXqXqXqXqXqXqXqXqXqXqXqX% `.{.[.[.{.n   qXqXqXqXqXqXqXqXqXqXqX",
"qXqXqXqXqXqXqXqXqXqXqXqXqXqX% % % % % qXqXqXqXqXqXqXqXqXqXqXqXqX",
"qXqXqXqXqXqXqXqXqXqXqXqXqXqXqXqXqXqXqXqXqXqXqXqXqXqXqXqXqXqXqXqX"
};
