/* XPM */
static char *_f26262a68214edffae1c4ff6f6adda2HeShjxqcPR4eRZ8x[] = {
/* columns rows colors chars-per-pixel */
"32 32 6 1 ",
"  c #37446E",
". c #38002C",
"X c black",
"o c #566A89",
"O c #222A5C",
"+ c #8BABBF",
/* pixels */
"XXXXXXXXXXXXXXXXXXXXXXXXXXXXXXXX",
"Xo++++++++++++++++++++++++++++o.",
"X++++++++++++++++++++++++++++++o",
"X++++++++++++++++++++++++++++++o",
"X++++++++++++++++++++++++++++++o",
"X++++++++++++++++++++++++++++++o",
"Xo++++++++++++++++++++++++++++o.",
"X++o     ..    ..    ..     +++.",
"X+++.    ..    ..    ..    .+++.",
"X+++.oooo  oooo  oooo  oooo.+++.",
"X+++ oooo  oooo  oooo  oooo +++ ",
"X+++ oooo  oooo  oooo  oooo +++ ",
"Xo++.oooo..oooo..oooo..oooo.o++ ",
"X   .    ..    ..    ..    .   .",
"X++ooooooooooooooooooooooooooooo",
"X+++oooooooooooooooooooooooooooo",
"Xo++oooooooooooooooooooooooooooo",
"X   ............................",
"X+++++o..OOOOOO..OOOOOO..OOOOOO.",
"X++++++..OOOOOO..OOOOOO..OOOOOO.",
"X++++++..OOOOOO..OOOOOO..OOOOOO.",
"X++++++..OOOOOO..OOOOOO..OOOOOO.",
"X++++++..OOOOOO..OOOOOO..OOOOOO.",
"Xo+++++..OOOOOO..OOOOOO..OOOOOO.",
"X   ............................",
"X++oOooooooOOOO..OOOOOOOOOOOOOOO",
"X+++OooooooOOOO..OOOOOOOOOOOOOOO",
"X+++OooooooOOOO..OOOOOOOOOOOOOOO",
"X+++OooooooOOOO..OOOOOOOOOOOOOOO",
"X+++OooooooOOOO..OOOOOOOOOOOOOOO",
"X+++OooooooOOOO..OOOOOOOOOOOOOOO",
"Xo++OooooooOOOO..OOOOOOOOOOOOOOO"
};
