/* XPM */
static char *result[] = {
/* columns rows colors chars-per-pixel */
"32 32 6 1 ",
"  c #37446E",
". c #38002C",
"X c #222A5C",
"o c #566A89",
"O c black",
"+ c #8BABBF",
/* pixels */
"OOOOOOOOOOOOOOOOOOOOOOOOOOOOOOOO",
".o++++++++++++++++++++++++++++o.",
"o++++++++++++++++++++++++++++++o",
"o++++++++++++++++++++++++++++++o",
"o++++++++++++++++++++++++++++++o",
"o++++++++++++++++++++++++++++++o",
".o++++++++++++++++++++++++++++o.",
".+++     ..    ..    ..     o++.",
".+++.    ..    ..    ..    .+++.",
".+++.oooo  oooo  oooo  oooo.+++.",
" +++ oooo  oooo  oooo  oooo +++ ",
" +++ oooo  oooo  oooo  oooo +++ ",
" ++o.oooo..oooo..oooo..oooo.++o ",
".   .    ..    ..    ..    .   .",
"oooooooooooooooooooooooooooooooo",
"oooooooooooooooooooooooooooooooo",
"oooooooooooooooooooooooooooooooo",
"................................",
"XXXXXXX..XXXXXXXXXXXXXX..XXXXXXX",
"XXXXXXX..XXXXXXXXXXXXXX..XXXXXXX",
"XXXXXXX..XXXXXXXXXXXXXX..XXXXXXX",
"XXXXXXX..XXXXXXXXXXXXXX..XXXXXXX",
"XXXXXXX..XXXXXXXXXXXXXX..XXXXXXX",
"XXXXXXX..XXXXXXXXXXXXXX..XXXXXXX",
"................................",
"Xo++++++++++++++++++++++++++++oX",
"o++++++++++++++++++++++++++++++o",
"o++++++++++++++++++++++++++++++o",
"o++++++++++++++++++++++++++++++o",
"o++++++++++++++++++++++++++++++o",
".o++++++++++++++++++++++++++++o.",
"OOOOOOOOOOOOOOOOOOOOOOOOOOOOOOOO"
};
