/* XPM */
static char *b0c2f60cc3144c52e9b957a96a349773SRobjSDKozRCQEsX[] = {
/* columns rows colors chars-per-pixel */
"32 32 6 1 ",
"  c #37446E",
". c #38002C",
"X c black",
"o c #566A89",
"O c #222A5C",
"+ c #8BABBF",
/* pixels */
"XXXXXXXXXXXXXXXXXXXXXXXXXXXXXXXX",
".o++++++++++++++++++++++++++++oX",
"o++++++++++++++++++++++++++++++X",
"o++++++++++++++++++++++++++++++X",
"o++++++++++++++++++++++++++++++X",
"o++++++++++++++++++++++++++++++X",
".o++++++++++++++++++++++++++++oX",
".+++     ..    ..    ..     o++X",
".+++.    ..    ..    ..    .+++X",
".+++.oooo  oooo  oooo  oooo.+++X",
" +++ oooo  oooo  oooo  oooo +++X",
" +++ oooo  oooo  oooo  oooo +++X",
" ++o.oooo..oooo..oooo..oooo.++oX",
".   .    ..    ..    ..    .   X",
"ooooooooooooooooooooooooooooo++X",
"oooooooooooooooooooooooooooo+++X",
"oooooooooooooooooooooooooooo++oX",
"............................   X",
".OOOOOO..OOOOOO..OOOOOO..o+++++X",
".OOOOOO..OOOOOO..OOOOOO..++++++X",
".OOOOOO..OOOOOO..OOOOOO..++++++X",
".OOOOOO..OOOOOO..OOOOOO..++++++X",
".OOOOOO..OOOOOO..OOOOOO..++++++X",
".OOOOOO..OOOOOO..OOOOOO..+++++oX",
"............................   X",
"OOOOOOOOOOOOOOO..OOOOooooooOo++X",
"OOOOOOOOOOOOOOO..OOOOooooooO+++X",
"OOOOOOOOOOOOOOO..OOOOooooooO+++X",
"OOOOOOOOOOOOOOO..OOOOooooooO+++X",
"OOOOOOOOOOOOOOO..OOOOooooooO+++X",
"OOOOOOOOOOOOOOO..OOOOooooooO+++X",
"OOOOOOOOOOOOOOO..OOOOooooooO++oX"
};
